<svg id="Layer_1" data-name="Layer 1" xmlns="http://www.w3.org/2000/svg" viewBox="0 0 1915.06 546.6"><defs><style>.cls-1,.cls-2{fill:#9b9a9a;}.cls-2{font-size:65px;font-family:Poppins-Regular, Poppins;}</style></defs><title>Logo-For-Web-Reversed-2</title><path class="cls-1" d="M262.89,176.92c16.81-1.58,22.33,11.65,31.13,20.58,4.76,4.81,5.57,10.81,4.45,16.48-.52,2.63-5.1,5.79-8.24,6.34-10.55,1.81-11.29,2.2-9.28,12.47,2.37,12.1,4.87,24.17,7.31,36.25.09.44.43,1,.28,1.3-7.14,14.38,1.46,28,2.23,42,.93,16.86,4,33.6,6.22,50.39,1.41,10.78,6.36,16.26,16.75,19a16.88,16.88,0,0,1,6.14,2.73c3.09,2.45,2.87,5.29-.84,6.84a18.31,18.31,0,0,1-8,1.48,189.77,189.77,0,0,1-22.21-2.47c-2.17-.4-5.58-3.43-5.51-5.13.66-15.19-6.27-28.46-9.94-42.54-3.76-14.39-7.16-28.86-10.87-43.26-.54-2.12-1.87-4.05-2.83-6.06l-2.25.21c-.72,3.14-1.66,6.25-2.12,9.43-2.23,15.58-4.83,31.14-6.29,46.79-.93,9.94-.38,20.06.11,30.06.19,4,2.49,7.88,2.93,11.91.28,2.62-.22,6.52-1.92,7.81s-5.67.5-7.85-.76c-5-2.88-7.33-7.39-7.55-13.6-.45-13-2-26-2.65-39-.48-9.12-.1-18.28-.43-27.41q-.66-18.18-1.93-36.33c-.13-1.79-1.51-4.5-2.93-5-5.78-2-4.24-6-3.5-10,2.53-13.91,5.85-27.76,7.06-41.79.59-6.86-3-14-4.38-21.11-1.52-8-3.13-16.05-3.77-24.16-.42-5.41,3.24-8.24,8.81-8.1,1.38,0,2.75.11,4.13.08,11.29-.19,14.54-4.08,10.49-14-3.81-9.29,5.53-22.8,14.7-22.35,7.25.36,11.9,5.86,11.83,13.21a42.35,42.35,0,0,1-7,22.51A53.21,53.21,0,0,0,262.89,176.92Z"/><path class="cls-1" d="M1223.63,164.23c0,21.8-.61,40.68.27,59.5.41,8.9-2,11.71-10.8,11.78-28.93.21-28.92.46-28.91-28.21,0-35.43.3-70.86-.19-106.29-.13-9.38,3.81-13,12.19-12.84,14,.26,26.85.48,36,15.41,11.42,18.64,26,35.38,39.33,52.81,1.84,2.4,4.62,4.08,9.17,8,.73-7.61,1.58-12.26,1.54-16.9-.14-15.77-.55-31.54-1-47.3-.21-8.22,3.24-12.5,11.85-12,4.55.24,9.15-.24,13.67.15,12.51,1,15.72,5.39,15.75,18q.18,57.32,1,114.62c.2,14.46.46,13.48-14,14.78-20.3,1.82-33.37-6.1-43.46-23.73-8.42-14.72-19.91-27.72-30.55-41.08C1233.24,168.08,1228.76,167,1223.63,164.23Z"/><path class="cls-1" d="M883.24,234c-4.25,1.39-7,3.09-9.76,3-9-.16-18.07-2.09-26.91-1.22-10.13,1-14.42-4.45-17.88-12-2.46-5.38-4.77-10.85-6.74-16.43-3.41-9.62-10.69-11.22-19.31-9.33-4.85,1.07-8.77,3.25-7.9,9.91.8,6.21-.16,12.62.29,18.89.48,6.62-2.56,8.72-8.62,8.61-9.81-.19-19.7.56-29.4-.47-3-.32-8.07-5.06-8.07-7.78,0-40.94.65-81.88,1.16-122.81.18-14.74.74-16.21,15.29-15.86,25.76.61,51.56,1.68,77.21,3.94,31.88,2.81,41.71,41.57,35,62.6-3.16,9.87-9.46,18.91-15.33,27.67-3.77,5.64-5,9.84-.89,15.93C868.88,209.71,875.51,221.36,883.24,234Zm-74-70.09c19,.06,27.27-5.83,27.5-20.15.18-11.63-7.6-19.1-22.9-19.44-16.41-.37-18.68,1.59-18.73,13.63C795,163.81,795,163.81,809.25,163.86Z"/><path class="cls-1" d="M1913.21,124.55c-21.11,0-41,0-60.88,0-6.17,0-13.17-1.54-13,8.71.21,9.42,5.16,11.94,13.56,11.65,13.31-.47,26.64-.42,40-.68,9.61-.19,14.14,4.56,14.16,14,0,25.5,1.28,21.07-20.31,21.12q-21,0-42.07.25c-1.34,0-2.67.75-4.67,1.36-.15,2.95-.14,6-.48,9.08-1,8.84,2,12.54,11.7,12.12,18.2-.79,36.47,0,54.71-.33,6.15-.1,9.24,1.77,9.13,8.17-.13,8,0,15.94,0,24.39-3.57.5-5.54,1-7.5,1-34.38,0-68.76-.23-103.14.06-7.46.06-9.5-2.46-9.46-9.71q.28-63.14-.26-126.28c-.06-8.15,3.13-11.34,11.17-11.31q48.95.21,97.88-.12c7.27,0,10,2.91,9.59,10.1C1912.86,106.48,1913.21,114.83,1913.21,124.55Z"/><path class="cls-1" d="M1088.18,124.71V145.4h63.36c.93,3.11,1.43,4.09,1.48,5.09,1.53,28.54,1.52,28.53-27,28.55-10.17,0-20.37.49-30.52-.06-9.81-.52-9.23,5.59-9.46,12.23-.25,7.49,2.54,11,10.29,10.92,17.89-.2,35.78-.1,53.67,0,12.71.06,13.39.9,12.15,13.83-1.86,19.51-1.86,19.54-22,19.54-29.25,0-58.5-.2-87.75,0-7.24.06-9.66-2.4-9.69-9.79-.19-40.32-.9-80.64-1.37-121-.18-15.69,1-16.71,16.65-16.68,29.82.06,59.64,0,89.47.11,12.16.06,13.86,2,13.91,14.22.08,23.68.1,23.35-23.86,22.44C1121.54,124.22,1105.45,124.71,1088.18,124.71Z"/><path class="cls-1" d="M902.1,235.47c0-27.28.2-53.51-.07-79.73-.19-17.17-.87-34.35-1.7-51.5-.67-13.85,1.09-16.16,14.32-16.17,29.82,0,59.65-.27,89.46.34,5.22.11,13.91,3,14.84,6.33,2.28,8.2,1.37,17.42.71,26.16-.1,1.27-5.81,3-8.95,3-17.88.38-35.78.17-53.66.51-5.37.1-12-.56-12.4,7.75-.32,7.55,1.86,13.09,11.06,12.91,13.83-.28,27.67-.25,41.51-.27,14.58,0,14.58,0,14.75,14.45.24,19.73.24,19.72-19.24,19.73-13,0-26,.32-38.93,0-9.83-.27-9,5.87-9.07,12.55-.05,7.15,1.5,11,10,10.72,18.93-.54,37.88.07,56.82-.25,6.7-.11,9.36,1.84,9.22,8.94-.57,30.15,3.53,24-23.09,24.43C966.43,235.88,935.2,235.47,902.1,235.47Z"/><path class="cls-1" d="M1736.17,198.3c.62-10.84,1.6-19.86,1.51-28.87-.07-6.94,2.79-8.94,9.32-9.29,27.38-1.48,27.36-1.65,27.27,25.3,0,8.07-.39,16.16.09,24.21.49,8.23-3.7,13.1-10.27,16.64-23.07,12.44-47,14.19-72.64,8.64-29.89-6.47-48.13-24.11-56.17-52.45-10.47-36.9,9.93-81.73,50.84-90,21.54-4.34,42.75-7.62,63.82.86a95.07,95.07,0,0,1,20,10.8c4.29,3.09,7.18,8.1,1.72,13.38a39.63,39.63,0,0,0-3.2,4.14c-14.32,18.26-14.18,17.92-36,8.25-14.32-6.35-28.64-5.54-41.17,4.7-11.73,9.6-16.25,22.3-13.72,37.32,2.21,13.11,17.48,28.16,32.28,27.56C1718.2,199.18,1726.56,198.75,1736.17,198.3Z"/><path class="cls-1" d="M1634,235.64c-13.32,0-25,0-36.65,0-7.82,0-12-3.24-13.27-11.48-1.22-7.67-6.48-11.81-14.93-11.59-11.92.31-23.86.2-35.79,0-7.94-.15-13.49,2.64-15.69,10.73-2.63,9.66-8.94,13.15-18.88,12.33-9-.75-18.16-.16-29.51-.16,4.34-11,8.07-20.79,12-30.48,13.75-33.45,27.89-66.73,41.2-100.35,4.17-10.56,10-16.44,21.74-14.76a20.34,20.34,0,0,0,4.2,0c32.23-2.17,27.43-.72,37.63,24.27q22.28,54.57,44.38,109.2C1631.85,226.7,1632.52,230.37,1634,235.64ZM1533.77,181.9l30.24-3.36c-1.72-8.94-3.42-17.87-5.2-26.79a6.76,6.76,0,0,0-1.37-2.79c-3.54-4.4-8.24-5.57-10.8-.17C1542,158.55,1538.7,169,1533.77,181.9Z"/><path class="cls-1" d="M1396.65,122.4c-3.56,12.68,1.11,15.41,9.72,18.24,15.26,5,30.59,11,44.29,19.24,15.37,9.25,19.25,24.86,15,42.19s-15.68,27-32.88,32.08c-32.17,9.49-61,.16-89-14-2.41-1.22-3-6.68-3.71-10.32-.33-1.81.86-4.11,1.85-5.92,3.49-6.38,5.84-15.33,11.26-18,3.87-1.94,11.85,4.86,18.2,7.2,9.75,3.58,19.59,6.95,29.57,9.83a16.26,16.26,0,0,0,10.26-.38c3.41-1.51,7.88-4.63,8.35-7.6s-2.65-8.42-5.55-9.69c-9.48-4.14-19.36-8.07-29.48-9.88-21.74-3.89-43.06-22.44-38.07-51.83,2.15-12.73,19.69-28.78,35.29-33.61,27-8.37,52.14-1.3,76.8,8.67,6.84,2.76,11,8.15,4.48,16.48-5.07,6.44-6.92,17.39-13.09,20.39-5.2,2.52-14.49-3.78-22.08-5.73C1417.62,127.06,1407.3,124.86,1396.65,122.4Z"/><path class="cls-1" d="M729.59,161.71c0,17.73.35,34.87-.3,52-.13,3.5-3.23,8.48-6.33,10-30.25,14.94-68.6,23.72-102.74.4-32.45-22.17-41.84-68.14-19.75-102.33,14.29-22.12,34.73-33.28,58.32-34.91,21.24-1.46,44,.63,62.65,14.94,9.11,7,9.63,10.09,2.78,19.24-2.29,3.06-4.87,5.92-7,9.11-5.09,7.79-11.53,8.59-19.79,5.21-11.64-4.75-22.85-11-36.58-7.39a38.19,38.19,0,0,0-28.39,33.16C630.88,177.91,645.25,197.06,658,199c9.15,1.38,18.85-.27,28.22-1.29,2-.21,4.08-3.35,5.15-5.61,1.16-2.42,1.29-5.38,1.63-8.13.94-7.41.45-20.71,2.84-21.24C706.38,160.38,717.77,161.71,729.59,161.71Z"/><path class="cls-1" d="M.42,298.46c0-7.45.35-14.91-.06-22.33-2-35.55,4.17-70,17.14-102.74,7.24-18.29,17.67-35.49,28.08-52.3,12.19-19.7,27.71-36.95,45.1-52.29a272.84,272.84,0,0,1,91.76-53.9C222.45,1,263.7-2.46,305.52,1.56a207.56,207.56,0,0,1,73.27,20.81A560.37,560.37,0,0,1,434.71,54c19.79,12.95,35.05,31.12,50,49.35,16.6,20.27,30.26,42.21,39.71,66.77,2.45,6.38,1.41,11.51-3.14,15.61-22.55,20.28-47.61,35.76-78.46,39.8-12.61,1.66-11.69,1.13-18.94-9.37-9-13.07-19.38-25.28-29.82-37.3-14.21-16.37-33.06-27.08-51.38-37.66-22.86-13.19-47.39-23.58-74.18-26.28-31.86-3.2-63-.54-93.62,10.14-21.25,7.4-41.72,16.09-60.36,28.42C88.4,170.7,64.71,190.52,46,216.38A331.47,331.47,0,0,0,3.78,295c-.47,1.26-1.14,2.44-1.72,3.65Zm432.77,36a6.9,6.9,0,0,1-.54,3.36c-7.53,12.4-13.83,25.88-23.15,36.77-8.34,9.76-19.57,17.32-30.33,24.68-21.86,14.95-46.55,22.21-72.9,22.33-12.61.05-25.23-2.5-37.85-3.91-19.34-2.16-36.77-10.18-53.26-19.53-30.47-17.29-60-36.18-90.29-53.85C104,332.07,83,320,59.44,313.12c-18.34-5.33-37-4.51-56.7-3.94C4.91,339.23,14.3,366.47,27,392.46c30.92,63.2,79.17,109.67,144.68,134.1C282,567.7,381.41,544.84,466.22,464.15c33.85-32.2,56.25-72.86,68-118.7,4.9-19.15,8.81-38.41,9.41-59.94-83.56,19.86-164.49,15-242.68-15.32-7,9.22-3.08,17.47-2.34,25.47.14,1.47,2.51,3.2,4.23,4a313.18,313.18,0,0,0,81.09,24.43c16.16,2.52,32.43,4.35,49,6.54A33.77,33.77,0,0,1,433.19,334.42ZM215.07,265.08c-36.92-11.17-73.9-12.94-111.71-7.89,4.72-1.42,9.42-2.94,14.17-4.23,22.3-6.08,44.85-10.39,68.11-8.94,9.11.56,18.17,1.83,27.27,2.42,4.87.32,6.66,2.48,5.52,7.06C217.5,257.21,216.31,260.86,215.07,265.08Z"/><text class="cls-2" transform="translate(590.59 454.22)">...success through partnerships</text><path class="cls-1" d="M672,284a39.13,39.13,0,0,1,14.87,14.93,45.48,45.48,0,0,1,0,43.23,39.62,39.62,0,0,1-14.93,15,43.25,43.25,0,0,1-41.78,0,39.48,39.48,0,0,1-14.93-15,45.22,45.22,0,0,1,0-43.23A39.56,39.56,0,0,1,630.15,284,43.46,43.46,0,0,1,672,284Zm-36.45,19.33q-5.73,6.3-5.73,17.18t5.73,17.13Q641.3,344,651,344t15.39-6.37q5.79-6.36,5.79-17.13t-5.73-17.13Q660.76,297,651,297T635.59,303.28Z"/><path class="cls-1" d="M722.67,279.84v47.22q0,8.1,3.65,12.38t10.59,4.29q6.95,0,10.59-4.29t3.64-12.38V279.84h19.79v47.22q0,11.58-4.51,19.5a29.34,29.34,0,0,1-12.32,11.92,38.28,38.28,0,0,1-17.65,4,36.93,36.93,0,0,1-17.36-3.93,27.91,27.91,0,0,1-11.81-11.92q-4.28-8-4.28-19.56V279.84Z"/><path class="cls-1" d="M842.92,279.84v15.74H820.7v66.08H800.79V295.58h-22V279.84Z"/><path class="cls-1" d="M906.74,350.55a23.13,23.13,0,0,1-9.72,8.68,34.24,34.24,0,0,1-15.56,3.24q-13.79,0-22.69-6.71T849.05,337h21.06a11.1,11.1,0,0,0,3.3,7.29,10.13,10.13,0,0,0,7.24,2.67,8.37,8.37,0,0,0,6-2.09,7.28,7.28,0,0,0,2.2-5.55,7.17,7.17,0,0,0-2-5.21,15.71,15.71,0,0,0-5-3.41q-3-1.33-8.33-3.19a101.38,101.38,0,0,1-12.67-5.15,23.29,23.29,0,0,1-8.45-7.4q-3.52-4.92-3.53-12.79a21.54,21.54,0,0,1,3.7-12.62,23.56,23.56,0,0,1,10.25-8.16,37.3,37.3,0,0,1,15-2.83q13.66,0,21.7,6.48t9.09,17.82H887.13a11,11,0,0,0-3-6.42,8.71,8.71,0,0,0-6.43-2.37,8.25,8.25,0,0,0-5.61,1.85,6.79,6.79,0,0,0-2.14,5.44,6.92,6.92,0,0,0,1.91,4.92,14.35,14.35,0,0,0,4.8,3.29q2.89,1.28,8.33,3.24a91.73,91.73,0,0,1,12.85,5.27,24.66,24.66,0,0,1,8.57,7.58q3.59,5,3.58,13A22.51,22.51,0,0,1,906.74,350.55Z"/><path class="cls-1" d="M980.93,284a39.2,39.2,0,0,1,14.87,14.93,45.44,45.44,0,0,1-.06,43.23,39.48,39.48,0,0,1-14.93,15,43.25,43.25,0,0,1-41.78,0,39.46,39.46,0,0,1-14.92-15,45.22,45.22,0,0,1,0-43.23A39.54,39.54,0,0,1,939,284a43.48,43.48,0,0,1,41.9,0Zm-36.46,19.33q-5.73,6.3-5.73,17.18t5.73,17.13Q950.2,344,959.92,344t15.4-6.37q5.77-6.36,5.78-17.13t-5.73-17.13Q969.66,297,959.92,297T944.47,303.28Z"/><path class="cls-1" d="M1031.56,279.84v47.22q0,8.1,3.65,12.38t10.59,4.29q6.95,0,10.59-4.29t3.64-12.38V279.84h19.79v47.22q0,11.58-4.51,19.5A29.3,29.3,0,0,1,1063,358.48a38.22,38.22,0,0,1-17.65,4,37,37,0,0,1-17.36-3.93,27.94,27.94,0,0,1-11.8-11.92q-4.29-8-4.28-19.56V279.84Z"/><path class="cls-1" d="M1135,361.66l-17.71-30.9h-4.51v30.9H1093V279.84h33.8q9.72,0,16.43,3.36a23.16,23.16,0,0,1,10.07,9.2,26.3,26.3,0,0,1,3.36,13.36,23.77,23.77,0,0,1-4.92,15.17q-4.92,6.24-14.29,8.56l19.44,32.17Zm-22.22-44.44h12.26q5.91,0,8.68-2.6c1.85-1.74,2.78-4.3,2.78-7.7a10.26,10.26,0,0,0-2.83-7.64c-1.9-1.85-4.77-2.77-8.63-2.77h-12.26Z"/><path class="cls-1" d="M1229.87,287.25q10.25,8.22,13.25,22.22h-20.95a19.15,19.15,0,0,0-7.12-8.91,19.89,19.89,0,0,0-11.4-3.24,17.37,17.37,0,0,0-14,6.36q-5.33,6.38-5.32,17t5.32,17a17.42,17.42,0,0,0,14,6.31,19.89,19.89,0,0,0,11.4-3.24,19.26,19.26,0,0,0,7.12-8.8h20.95q-3,13.89-13.25,22.16T1204,362.36a40.82,40.82,0,0,1-21-5.27,35.81,35.81,0,0,1-13.94-14.75,50.07,50.07,0,0,1,0-43.29,35.81,35.81,0,0,1,13.94-14.75,40.82,40.82,0,0,1,21-5.27Q1219.63,279,1229.87,287.25Z"/><path class="cls-1" d="M1274,279.84v81.82h-19.79V279.84Z"/><path class="cls-1" d="M1360.35,361.66h-19.79l-33.1-50.22v50.22h-19.79V279.84h19.79l33.1,50.69V279.84h19.79Z"/><path class="cls-1" d="M1437.66,286.55a32.06,32.06,0,0,1,12.39,20.37h-21a16.17,16.17,0,0,0-6.37-7,19.41,19.41,0,0,0-10.3-2.6q-9.37,0-15,6.3t-5.67,17.07q0,11.7,6,17.94t17,6.25A20.52,20.52,0,0,0,1427,341a20.75,20.75,0,0,0,7.52-11.06h-25V315.72h41.55v19.56a40.16,40.16,0,0,1-7.41,13.31,38.17,38.17,0,0,1-13,10,41.29,41.29,0,0,1-18.11,3.82q-12.39,0-21.64-5.27a36.09,36.09,0,0,1-14.3-14.75,49.09,49.09,0,0,1,0-43.29,36.2,36.2,0,0,1,14.24-14.75,42.47,42.47,0,0,1,21.47-5.27Q1427.71,279,1437.66,286.55Z"/><path class="cls-1" d="M1505.13,346.5h26.39v15.16h-46.18V279.84h19.79Z"/><path class="cls-1" d="M1560.45,279.84v81.82h-19.79V279.84Z"/><path class="cls-1" d="M1666.12,280.42v81.24h-19.79v-50.8l-17.59,50.8h-17.13l-17.71-50.92v50.92h-19.79V280.42h24.19L1620.4,337,1642,280.42Z"/><path class="cls-1" d="M1699.56,279.84v81.82h-19.79V279.84Z"/><path class="cls-1" d="M1772,279.84v15.74h-22.22v66.08h-19.91V295.58h-22V279.84Z"/><path class="cls-1" d="M1800.13,295.58v17.13h27.66v14.93h-27.66v18.17h31.13v15.85h-50.92V279.84h50.92v15.74Z"/><path class="cls-1" d="M1911,341.93a36.21,36.21,0,0,1-14.82,14.53q-9.66,5.21-22.74,5.2h-30.9V279.84h30.9q13.2,0,22.8,5.09A35.64,35.64,0,0,1,1911,299.28a46.73,46.73,0,0,1,0,42.65Zm-21.3-4.11q6.42-6.13,6.42-17.24t-6.42-17.25q-6.42-6.12-18-6.13h-9.37V344h9.37Q1883.23,344,1889.65,337.82Z"/></svg>