<?xml version="1.0" standalone="no"?>
<!DOCTYPE svg PUBLIC "-//W3C//DTD SVG 20010904//EN"
 "http://www.w3.org/TR/2001/REC-SVG-20010904/DTD/svg10.dtd">
<svg version="1.0" xmlns="http://www.w3.org/2000/svg"
 width="100.000000pt" height="100.000000pt" viewBox="0 0 100.000000 100.000000"
 preserveAspectRatio="xMidYMid meet">
<metadata>
Created by potrace 1.14, written by Peter Selinger 2001-2017
</metadata>
<g transform="translate(0.000000,100.000000) scale(0.100000,-0.100000)"
fill="#000000" stroke="none">
<path d="M401 985 c-229 -58 -384 -240 -397 -465 l-4 -75 36 68 c91 167 235
265 402 272 123 4 246 -56 322 -158 33 -44 37 -47 70 -41 39 6 109 44 130 69
12 15 10 24 -13 69 -59 113 -180 213 -302 251 -72 22 -180 27 -244 10z"/>
<path d="M462 733 c-5 -10 -7 -24 -5 -30 3 -7 -7 -17 -22 -23 -24 -9 -26 -14
-19 -43 11 -48 11 -69 3 -107 -4 -19 -4 -39 1 -45 5 -6 10 -51 11 -100 2 -128
31 -176 34 -57 4 152 11 158 44 37 19 -68 27 -85 42 -85 11 0 22 0 26 -1 4 0
9 4 11 10 2 6 -3 11 -11 11 -19 0 -23 14 -36 105 -23 162 -24 185 -7 185 9 0
16 8 16 18 0 22 -27 62 -43 62 -7 0 -12 15 -12 37 0 40 -18 55 -33 26z"/>
<path d="M250 540 c-21 -7 -18 -8 20 -9 25 -1 64 -6 87 -10 31 -6 43 -5 47 4
2 7 -3 15 -12 17 -30 8 -116 7 -142 -2z"/>
<path d="M550 478 c0 -19 9 -29 38 -41 46 -20 103 -34 160 -41 24 -2 46 -7 49
-10 7 -6 -20 -50 -51 -84 -11 -13 -43 -36 -71 -50 -41 -21 -63 -25 -120 -24
-84 1 -102 8 -270 106 -135 80 -175 96 -237 96 -45 0 -46 -6 -17 -92 54 -160
176 -275 343 -323 45 -13 84 -16 161 -13 93 4 108 8 180 43 102 51 194 140
235 227 29 63 59 182 48 193 -3 3 -25 1 -48 -4 -90 -20 -288 -2 -382 34 -14 6
-18 2 -18 -17z"/>
</g>
</svg>
