<svg width="496" height="496" viewBox="0 0 496 496" fill="none" xmlns="http://www.w3.org/2000/svg">
<path d="M402.524 432L384.004 376.432C377.532 357.032 361.02 342.712 340.892 339.048L287.428 329.32V325.176C296.732 319.776 304.828 312.552 311.276 304H327.428C340.66 304 351.428 293.232 351.428 280V184C351.428 126.656 304.772 80 247.428 80C190.084 80 143.428 126.656 143.428 184V240C143.428 255.424 154.396 268.328 168.94 271.336C173.428 294.328 187.796 313.784 207.428 325.176V329.32L153.956 339.048C133.836 342.712 117.316 357.032 110.852 376.432L107.652 386.04L80.4041 358.792C77.2841 355.672 77.2841 350.592 80.4041 347.472L112.004 315.88L52.6921 256.568L16.9801 292.28C6.40408 302.856 0.580078 316.92 0.580078 331.88C0.580078 346.84 6.40408 360.896 16.9801 371.472L125.1 479.592C135.676 490.168 149.74 496 164.7 496C179.66 496 193.716 490.168 204.044 479.832L243.012 444.128L230.86 432H402.524ZM335.428 280C335.428 284.416 331.836 288 327.428 288H320.7C323.02 282.712 324.78 277.136 325.916 271.336C329.34 270.624 332.492 269.264 335.428 267.552V280ZM327.428 253.776V226.224C332.188 229 335.428 234.104 335.428 240C335.428 245.896 332.188 251 327.428 253.776ZM167.428 253.776C162.668 251 159.428 245.896 159.428 240C159.428 234.104 162.668 229 167.428 226.224V253.776ZM167.428 200V209.136C164.58 209.88 161.908 211 159.428 212.448V184C159.428 135.48 198.908 96 247.428 96C295.948 96 335.428 135.48 335.428 184V212.448C332.948 211 330.276 209.872 327.428 209.136V200H319.428C295.772 200 273.532 190.784 256.796 174.056L247.428 164.688L238.06 174.056C221.324 190.784 199.084 200 175.428 200H167.428ZM183.428 256V215.696C207.452 213.888 229.852 203.976 247.428 187.264C265.004 203.976 287.404 213.896 311.428 215.696V256C311.428 267.664 308.244 278.576 302.772 288H247.428V304H289.62C278.34 313.928 263.596 320 247.428 320C212.14 320 183.428 291.288 183.428 256ZM271.428 332.312V332.688L247.428 356.688L223.428 332.688V332.312C231.012 334.696 239.068 336 247.428 336C255.788 336 263.844 334.696 271.428 332.312ZM126.02 381.488C130.636 367.632 142.436 357.4 156.812 354.776L212.732 344.616L247.428 379.312L282.116 344.624L338.028 354.784C352.404 357.408 364.204 367.632 368.82 381.496L380.332 416H214.86L183.7 384.84L149.076 416.16C146.06 419.192 140.788 419.192 137.764 416.16L120.292 398.688L126.02 381.488ZM52.6841 279.192L89.3721 315.88L80.6841 324.568L43.9961 287.88L52.6841 279.192ZM192.964 468.296C185.412 475.832 175.364 480 164.684 480C154.004 480 143.956 475.832 136.396 468.28L28.2761 360.168C20.7241 352.616 16.5641 342.568 16.5641 331.888C16.5641 321.2 20.7241 311.152 28.2761 303.6L32.6761 299.2L69.3641 335.888L69.0761 336.176C59.7241 345.536 59.7241 360.76 69.0761 370.12L126.444 427.488C130.98 432.016 137.004 434.52 143.42 434.52C149.836 434.52 155.86 432.024 160.1 427.768L160.7 427.232L197.556 464.088L192.964 468.296ZM209.364 453.256L172.588 416.48L183.156 406.928L219.868 443.64L209.364 453.256Z" fill="black"/>
<path d="M471.428 0H359.428C346.196 0 335.428 10.768 335.428 24V88C335.428 101.232 346.196 112 359.428 112H380.796L372.524 160.248L449.724 112H471.428C484.66 112 495.428 101.232 495.428 88V24C495.428 10.768 484.66 0 471.428 0ZM479.428 88C479.428 92.408 475.836 96 471.428 96H445.132L394.324 127.752L399.772 96H359.428C355.02 96 351.428 92.408 351.428 88V24C351.428 19.592 355.02 16 359.428 16H471.428C475.836 16 479.428 19.592 479.428 24V88Z" fill="black"/>
<path d="M463.428 32H367.428V48H463.428V32Z" fill="black"/>
<path d="M431.428 64H367.428V80H431.428V64Z" fill="black"/>
<path d="M463.428 64H447.428V80H463.428V64Z" fill="black"/>
<path d="M247.428 24C142.9 24 52.86 96.304 29.452 197.16L14.292 171.888L0.572021 180.12L28.692 226.976L75.548 198.856L67.316 185.136L45.636 198.144C68.308 105.88 151.276 40 247.428 40C268.444 40 289.18 43.12 309.06 49.28L313.796 34C292.38 27.36 270.052 24 247.428 24Z" fill="black"/>
<path d="M491.54 177.136L444.684 149.016L416.572 195.88L430.292 204.112L444.292 180.776C451.66 202.336 455.428 224.888 455.428 248C455.428 295.576 438.948 342.088 409.036 378.96L421.46 389.04C453.684 349.328 471.428 299.232 471.428 248C471.428 223.528 467.484 199.632 459.796 176.752L483.308 190.856L491.54 177.136Z" fill="black"/>
</svg>
