<svg width="167" height="168" viewBox="0 0 167 168" fill="none" xmlns="http://www.w3.org/2000/svg">
<path d="M166.644 87.7C164.744 113.2 154.244 134.1 134.144 149.7C107.944 170.1 72.4444 173 42.9444 156.8C14.6444 141.3 2.44444 113.9 0.544444 94.6C3.64444 94.6 6.74444 94.5 9.74444 94.6C14.8444 94.9 19.7444 96.2 24.3444 98.3C28.8444 100.3 33.2444 102.7 37.5444 105.3C46.5444 110.6 55.3444 116.3 64.3444 121.4C71.4444 125.4 79.0444 128.3 87.1444 129.1C95.5444 129.9 103.644 129 111.344 125.2C116.144 122.8 120.644 119.9 124.444 116.1C128.244 112.3 131.044 107.8 132.844 102.7C132.944 102.5 132.944 102.3 132.944 102.1C132.944 101.8 132.944 101.5 132.944 101C130.944 100.9 129.144 100.9 127.244 100.6C123.444 100.1 119.644 99.6 115.844 99C113.144 98.6 110.444 97.9 107.844 97.2C105.444 96.6 103.044 95.8 100.644 95C97.9444 94.1 95.4444 93 92.8444 91.9C89.4444 90.6 86.0444 89.2 82.6444 87.8C78.4444 86.1 74.2444 84.4 69.9444 82.8C67.2444 81.8 64.6444 80.7 61.9444 80.1C58.7444 79.3 55.4444 78.7 52.1444 78.4C48.4444 78 44.7444 77.8 41.0444 77.9C37.7444 78 34.5444 78.8 31.3444 79.2C30.9444 79.2 30.5444 79.3 30.0444 79.4C30.0444 79.3 30.0444 79.2 30.0444 79.1C30.4444 79 30.8444 78.9 31.2444 78.8C34.2444 78 37.2444 77.1 40.3444 76.4C43.0444 75.8 45.8444 75.4 48.5444 75.1C51.0444 74.9 53.5444 74.8 56.0444 74.9C60.1444 75 64.3444 75.3 68.4444 76.4C72.7444 77.5 77.0444 78.6 81.3444 79.8C87.2444 81.5 92.9444 83.4 98.8444 85.1C105.444 87.1 112.044 89 118.844 89.9C122.944 90.5 127.144 90.7 131.344 91C134.044 91.2 136.744 91.4 139.444 91.2C145.644 90.7 151.744 90 157.944 89.2C160.844 89 163.544 88.3 166.644 87.7ZM9.74444 71.9C11.4444 69.2 13.5444 66.7 15.4444 64.2C16.4444 62.9 17.3444 61.5 18.4444 60.3C19.9444 58.7 21.5444 57.2 23.2444 55.8C25.9444 53.6 28.6444 51.5 31.3444 49.3C35.3444 46.1 40.0444 43.9 44.6444 41.6C45.5444 41.2 46.4444 40.8 47.3444 40.4C49.0444 39.8 50.8444 39.2 52.5444 38.6C55.1444 37.8 57.6444 36.8 60.3444 36.1C62.8444 35.5 65.3444 35.1 67.8444 35C71.5444 34.8 75.3444 34.7 79.0444 34.7C80.9444 34.7 82.8444 35.1 84.6444 35.5C86.7444 35.9 88.8444 36.2 90.8444 36.9C93.2444 37.7 95.6444 38.7 98.0444 39.8C100.244 40.7 102.444 41.8 104.644 42.9C105.244 43.2 105.644 43.7 106.244 44.1C108.544 45.5 110.844 46.9 113.044 48.3C117.444 51.3 121.344 55 124.744 59.1C127.244 62 129.544 65 131.044 68.6C131.144 69 131.944 69.5 132.344 69.5C135.544 69.2 138.744 68.9 141.844 67.8C144.644 66.8 147.344 65.8 149.944 64.3C153.444 62.2 156.644 59.7 159.744 57C161.144 55.8 161.744 54.3 161.144 53.1C160.244 50.9 159.444 48.6 158.344 46.4C157.244 44.3 155.944 42.3 154.744 40.2C152.544 36.6 150.344 33.1 147.444 30.1C145.544 28.1 143.744 25.9 141.844 23.9C139.744 21.8 137.644 19.8 135.344 17.9C132.844 15.9 130.144 14 127.444 12.4C123.444 10.1 119.244 8.1 114.944 6.2C111.844 4.8 108.544 3.7 105.344 2.7C102.944 2 100.444 1.5 97.9444 1.1C94.9444 0.6 91.9444 0.1 89.0444 0C84.3444 0 79.5444 0.1 74.7444 0.4C71.9444 0.6 69.4444 1 66.9444 1.5C63.9444 2.1 60.8444 2.8 57.9444 3.7C53.6444 5.1 49.3444 6.7 45.3444 8.9C42.7444 10.4 40.0444 11.7 37.5444 13.3C35.2444 14.8 33.1444 16.5 30.9444 18.1C30.2444 18.6 29.5444 19.1 28.9444 19.6C27.1444 21.3 25.3444 23 23.6444 24.8C22.0444 26.4 20.5444 28 19.1444 29.7C17.8444 31.2 16.7444 32.9 15.6444 34.5C14.4444 36.1 13.1444 37.7 12.1444 39.4C10.0444 43.2 7.94444 47 6.14444 50.8C4.94444 53.4 4.04444 56 3.34444 58.6C1.74444 64.6 0.144444 70.5 0.0444444 76.8C-0.0555556 81.8 0.0444444 86.8 0.0444444 91.9C0.144444 91.9 0.244444 91.9 0.244444 91.9C0.444444 91.5 0.644444 91.2 0.844444 90.8C2.84444 84.2 6.04444 77.9 9.74444 71.9Z" fill="url(#paint0_linear)"/>
<defs>
<linearGradient id="paint0_linear" x1="83.2937" y1="167.221" x2="83.2937" y2="0" gradientUnits="userSpaceOnUse">
<stop stop-color="#14375D"/>
<stop offset="0.1011" stop-color="#16475A"/>
<stop offset="0.3245" stop-color="#2B7048"/>
<stop offset="0.3783" stop-color="#317C41"/>
<stop offset="0.8095" stop-color="#A1CC3A"/>
</linearGradient>
</defs>
</svg>
