<svg width="501" height="500" viewBox="0 0 501 500" fill="none" xmlns="http://www.w3.org/2000/svg">
<path d="M283.382 164.225L286.406 165.537C297.597 170.391 313.305 182.736 324.684 204.259C336.208 226.057 343.068 256.876 336.676 297.634L335.795 303.249H174.46L173.679 297.414C167.799 253.481 177.295 221.859 191.874 200.523C206.228 179.517 225.232 168.836 238.451 165.344L241.561 164.523L243.416 178.62L240.306 179.442C228.645 182.522 211.718 192.098 199.145 210.498C187.414 227.666 179.231 252.822 182.933 288.908H327.594C331.894 255.124 325.834 230.353 316.583 212.856C306.686 194.136 292.916 183.358 283.443 179.249L280.419 177.937L283.382 164.225Z" fill="black"/>
<path d="M347.3 298.192L336.736 314.866L427.997 430.928L438.56 414.253L347.3 298.192ZM347.782 310.848L345.669 314.183L427.515 418.271L429.627 414.936L347.782 310.848Z" fill="black"/>
<path d="M443.484 168.197L446.609 168.895C455.439 170.871 468.444 177.558 479.463 191.299C490.626 205.22 499.674 226.317 500.219 256.458L500.352 263.812H364.217V249.472H489.763C488.126 227.684 481.123 212.473 472.776 202.064C463.384 190.351 452.225 184.67 445.03 183.06L441.906 182.361L443.484 168.197Z" fill="black"/>
<path fill-rule="evenodd" clip-rule="evenodd" d="M410.041 170.793L406.932 171.619C399.383 173.625 382.148 182.752 372.025 204.266L370.271 207.995L378.692 215.95L380.446 212.221C388.542 195.016 402.852 187.293 408.797 185.714L411.906 184.888L410.041 170.793Z" fill="black"/>
<path d="M61.8616 159.789L58.7374 160.487C49.1533 162.632 35.0114 169.9 23.0325 184.839C10.91 199.956 1.07861 222.866 0.485529 255.638L0.352452 262.992H148.507V248.651H10.9225C12.6216 224.232 20.4119 207.211 29.7196 195.603C40.0719 182.694 52.3675 176.431 60.3159 174.652L63.4401 173.953L61.8616 159.789Z" fill="black"/>
<path fill-rule="evenodd" clip-rule="evenodd" d="M127.104 198.232C116.822 176.378 99.1089 166.942 91.4761 164.914L90.8933 169.318C98.0248 171.213 114.824 180.211 124.473 200.718L127.104 198.232Z" fill="black"/>
<path d="M92.9914 159.536L90.8934 180.34L94.6231 181.641C102.578 184.414 121.636 197.889 132.453 228.056L134.558 233.927L144.03 222.185L141.925 216.315C128.828 179.787 106.479 164.238 96.7211 160.836L92.9914 159.536Z" fill="black"/>
<path d="M444.998 413.383L486.188 460.799L472.385 484.871L431.195 437.454L444.998 413.383ZM420.516 439.02L473.49 500L496.867 459.234L443.893 398.253L420.516 439.02Z" fill="black"/>
<path d="M77.2927 164.056C63.1378 164.056 51.0407 146.898 51.0407 124.62C51.0407 102.342 63.1378 85.184 77.2927 85.184C91.4476 85.184 103.545 102.342 103.545 124.62C103.545 146.898 91.4476 164.056 77.2927 164.056ZM77.2927 175.707C96.333 175.707 111.768 152.835 111.768 124.62C111.768 96.4051 96.333 73.5325 77.2927 73.5325C58.2524 73.5325 42.8171 96.4051 42.8171 124.62C42.8171 152.835 58.2524 175.707 77.2927 175.707Z" fill="black"/>
<path d="M260.741 164.914C246.586 164.914 234.489 147.756 234.489 125.478C234.489 103.2 246.586 86.0419 260.741 86.0419C274.896 86.0419 286.993 103.2 286.993 125.478C286.993 147.756 274.896 164.914 260.741 164.914ZM260.741 176.565C279.781 176.565 295.216 153.693 295.216 125.478C295.216 97.263 279.781 74.3904 260.741 74.3904C241.7 74.3904 226.265 97.263 226.265 125.478C226.265 153.693 241.7 176.565 260.741 176.565Z" fill="black"/>
<path d="M425.211 172.084C439.366 172.084 451.463 154.926 451.463 132.648C451.463 110.37 439.366 93.2123 425.211 93.2123C411.056 93.2123 398.959 110.37 398.959 132.648C398.959 154.926 411.056 172.084 425.211 172.084ZM425.211 183.736C406.171 183.736 390.736 160.863 390.736 132.648C390.736 104.433 406.171 81.5608 425.211 81.5608C444.251 81.5608 459.687 104.433 459.687 132.648C459.687 160.863 444.251 183.736 425.211 183.736Z" fill="black"/>
<path d="M254.731 341.479C318.665 341.479 370.493 268.046 370.493 177.462C370.493 86.8773 318.665 13.4441 254.731 13.4441C190.798 13.4441 138.969 86.8773 138.969 177.462C138.969 268.046 190.798 341.479 254.731 341.479ZM254.731 354.923C185.557 354.923 129.48 275.471 129.48 177.462C129.48 79.4523 185.557 0 254.731 0C323.905 0 379.982 79.4523 379.982 177.462C379.982 275.471 323.905 354.923 254.731 354.923Z" fill="black"/>
</svg>
