<svg width="512" height="512" viewBox="0 0 512 512" fill="none" xmlns="http://www.w3.org/2000/svg">
<path d="M136 88C136 61.528 114.472 40 88 40C61.528 40 40 61.528 40 88C40 114.472 61.528 136 88 136C114.472 136 136 114.472 136 88ZM56 88C56 70.352 70.352 56 88 56C105.648 56 120 70.352 120 88C120 105.648 105.648 120 88 120C70.352 120 56 105.648 56 88Z" fill="black"/>
<path d="M438.976 61.7017L450.29 50.388L461.603 61.7017L450.29 73.0154L438.976 61.7017Z" fill="black"/>
<path d="M416.346 84.3215L427.66 73.0078L438.974 84.3215L427.66 95.6352L416.346 84.3215Z" fill="black"/>
<path d="M394.296 106.377L405.039 95.6348L416.352 106.949L405.61 117.691L394.296 106.377Z" fill="black"/>
<path d="M480 344H435.624C448.976 316.744 456 286.6 456 256C456 215.36 443.872 176.648 421.112 143.392C427.152 139.176 433.048 134.752 438.784 130.104L488 179.312L505.152 162.16L481.152 90.1519L483.712 87.5919C491.64 79.6799 496 69.1519 496 57.9359C496 34.8159 477.184 15.9999 454.056 15.9999C442.864 15.9999 432.328 20.3599 424.4 28.2719L421.824 30.8479L349.832 6.8479L332.688 23.9999L381.904 73.2159C377.248 78.9439 372.832 84.8479 368.616 90.8799C335.352 68.1279 296.64 55.9999 256 55.9999C225.08 55.9999 194.608 63.1759 167.128 76.8079C161.656 37.9919 128.304 7.9999 88 7.9999C43.888 7.9999 8 43.8879 8 87.9999V90.1999C8 106.04 12.648 121.384 21.44 134.576L64.376 198.976C58.888 217.416 56 236.568 56 256C56 280.928 60.52 305.088 69.384 328H64C50.768 328 40 338.768 40 352C40 362.416 46.712 371.216 56 374.528V392H8V418.792C8 465.776 46.224 504 93.208 504H181.76C214.632 504 244.344 484.816 258.408 455.936C282.48 455.656 305.832 451.192 328.008 442.616V480C328.008 493.232 338.776 504 352.008 504H480.008C493.24 504 504.008 493.232 504.008 480V368C504 354.768 493.232 344 480 344V344ZM392 360H440V376H392V360ZM352 344H328.112C332.744 319.808 335.488 292.768 335.92 264H439.736C438.52 292.056 430.912 319.456 417.52 344H352ZM263.752 438.384L264 424H228.944L203.432 372.968C208.568 370.16 212.536 365.576 214.528 360H308.216C297.4 403.088 280.56 431.568 263.752 438.384ZM214.528 344C211.824 336.416 205.464 330.592 197.528 328.704C194.296 308.136 192.504 286.44 192.16 264H319.92C319.464 293.576 316.496 320.536 311.808 344H214.528ZM72.304 248C72.808 236.224 74.312 224.568 77.024 213.184C80.344 215 84.096 216 88 216C95.688 216 102.824 212.176 107.096 205.784L132.28 168H183.888C179.256 192.192 176.512 219.232 176.08 248H72.304ZM200.24 168H311.864C316.712 192.464 319.416 219.696 319.856 248H192.152C192.616 218.432 195.544 191.448 200.24 168ZM256 71.9999C270.216 71.9999 284.84 88.0959 296.576 116.112L290.496 122.192L300.928 127.408C303.648 135.128 306.12 143.312 308.288 152H203.832C216.336 102.312 236.848 71.9999 256 71.9999V71.9999ZM344.64 131.376L317.504 117.808L322.456 112.864L350.568 119.888C348.504 123.664 346.552 127.504 344.64 131.376ZM337.92 145.904C337.856 146.048 337.784 146.192 337.72 146.336C336.936 148.152 336.52 150.064 336.272 152H324.704C323.52 146.984 322.232 142.128 320.872 137.384L337.92 145.904ZM439.688 248H335.856C335.432 219.856 332.8 192.696 328.112 168H340.784C344.688 172.84 350.584 176 357.272 176C360.152 176 362.968 175.424 365.656 174.28C365.808 174.216 365.944 174.144 366.096 174.08L389.808 221.504L416.856 194.448L406.504 153.032C406.936 152.768 407.352 152.48 407.784 152.208C427.296 180.664 438.216 213.464 439.688 248ZM392.112 161.432L399.136 189.544L394.184 194.488L380.616 167.352C384.496 165.448 388.336 163.496 392.112 161.432ZM485.696 154.384L450.992 119.68C455.016 116.056 458.968 112.344 462.808 108.496L468.496 102.808L485.696 154.384ZM454.056 31.9999C468.36 31.9999 480 43.6319 480 57.9359C480 64.8719 477.304 71.3839 472.4 76.2799L451.496 97.1839C424.912 123.768 393.904 144.76 359.368 159.568C355.984 160.992 352 158.352 352 154.728C352 154.008 352.144 153.304 352.424 152.64C367.24 118.088 388.224 87.0879 414.808 60.4959L435.704 39.5919V39.5999C440.616 34.6959 447.136 31.9999 454.056 31.9999ZM357.624 26.3039L409.192 43.4959L403.504 49.1919C399.656 53.0399 395.944 56.9919 392.32 61.0079L357.624 26.3039ZM358.96 105.496L317.552 95.1359L308.768 103.92C303.512 92.5039 297.696 82.9679 291.432 75.5199C315.88 80.2639 338.992 89.9439 359.792 104.208C359.512 104.648 359.224 105.064 358.96 105.496ZM167.672 94.6479C184.384 85.4879 202.4 78.9679 221.08 75.3679C206.968 92.0879 195.264 118.768 187.32 152H142.944L154.56 134.576C162.52 122.632 166.88 108.896 167.672 94.6479V94.6479ZM24 90.1999V87.9999C24 52.7119 52.712 23.9999 88 23.9999C123.288 23.9999 152 52.7119 152 87.9999V90.1999C152 102.88 148.28 115.152 141.248 125.704L93.776 196.904C91.192 200.776 84.8 200.776 82.216 196.904L34.744 125.704C27.72 115.16 24 102.88 24 90.1999V90.1999ZM72.208 264H176.16C176.496 286.128 178.2 307.568 181.256 328H86.688C78.024 307.664 73.152 286.2 72.208 264ZM64 344H192C196.408 344 200 347.584 200 352C200 356.416 196.408 360 192 360H64C59.592 360 56 356.416 56 352C56 347.584 59.592 344 64 344ZM72 376H187.056L211.056 424H100.944L84.944 392H72V376ZM181.76 488H93.208C55.048 488 24 456.952 24 418.792V408H75.056L91.056 440H247.64C238.496 468.376 211.728 488 181.76 488V488ZM290.912 436.64C305.024 419.92 316.736 393.232 324.68 360H329.472C328.576 362.512 328 365.184 328 368V425.304C316 430.424 303.616 434.208 290.912 436.64V436.64ZM488 480C488 484.416 484.408 488 480 488H352C347.592 488 344 484.416 344 480V368C344 363.584 347.592 360 352 360H376V392H456V360H480C484.408 360 488 363.584 488 368V480Z" fill="black"/>
<path d="M456 456H472V472H456V456Z" fill="black"/>
<path d="M424 456H440V472H424V456Z" fill="black"/>
<path d="M136 392H152V408H136V392Z" fill="black"/>
<path d="M168 392H184V408H168V392Z" fill="black"/>
<path d="M104 392H120V408H104V392Z" fill="black"/>
<path d="M216 280H232V296H216V280Z" fill="black"/>
<path d="M280 280H296V296H280V280Z" fill="black"/>
<path d="M248 280H264V296H248V280Z" fill="black"/>
<path d="M280 216H296V232H280V216Z" fill="black"/>
<path d="M248 216H264V232H248V216Z" fill="black"/>
<path d="M216 216H232V232H216V216Z" fill="black"/>
</svg>
