<svg width="512" height="512" viewBox="0 0 512 512" fill="none" xmlns="http://www.w3.org/2000/svg">
<path d="M238.634 113.381C237.659 112.228 236.286 111.485 234.788 111.299C233.29 111.114 231.777 111.5 230.551 112.381L55.7569 237.907C55.1169 238.367 54.5737 238.948 54.1583 239.617C53.7429 240.287 53.4635 241.032 53.336 241.809C53.2084 242.587 53.2353 243.382 53.415 244.149C53.5947 244.916 53.9238 245.64 54.3834 246.28C54.843 246.92 55.4242 247.464 56.0938 247.879C56.7633 248.294 57.5082 248.574 58.2857 248.701C59.0633 248.829 59.8583 248.802 60.6255 248.622C61.3927 248.443 62.1169 248.114 62.7569 247.654L233.046 125.362L289.467 192.144C290.464 193.324 291.878 194.074 293.415 194.238C294.951 194.402 296.491 193.967 297.715 193.023L438.172 84.7069L457.317 106.722C458.096 107.617 459.122 108.262 460.267 108.574C461.412 108.886 462.624 108.851 463.749 108.474C464.875 108.097 465.863 107.395 466.589 106.457C467.316 105.519 467.747 104.386 467.83 103.202L471.379 52.3019C471.489 50.715 470.964 49.1493 469.92 47.9492C468.876 46.749 467.398 46.0127 465.811 45.9019L414.911 42.3539C413.727 42.2713 412.545 42.5416 411.515 43.1306C410.485 43.7197 409.652 44.601 409.123 45.6632C408.594 46.7254 408.391 47.9207 408.541 49.0979C408.691 50.2752 409.187 51.3815 409.966 52.2769L430.284 75.6399L294.931 180.017L238.634 113.381Z" fill="black"/>
<path d="M321.688 262.1C321.685 259.049 320.472 256.123 318.315 253.965C316.157 251.807 313.232 250.593 310.18 250.59H199.673C196.622 250.594 193.696 251.807 191.539 253.965C189.381 256.123 188.168 259.049 188.165 262.1V263.464C188.168 266.515 189.382 269.44 191.539 271.598C193.697 273.756 196.622 274.969 199.673 274.973H310.18C313.231 274.97 316.157 273.756 318.314 271.598C320.471 269.441 321.685 266.515 321.688 263.464V262.1Z" fill="black"/>
<path d="M309.5 396.365H223.947C215.72 406.398 204.779 413.852 192.431 417.838C194.641 419.722 197.451 420.754 200.355 420.746H309.5C312.714 420.717 315.787 419.42 318.049 417.137C320.311 414.854 321.581 411.77 321.581 408.556C321.581 405.341 320.311 402.257 318.049 399.974C315.787 397.691 312.714 396.394 309.5 396.365V396.365Z" fill="black"/>
<path d="M309.5 359.9H238.94C238.158 368.405 235.754 376.681 231.856 384.281H309.5C312.714 384.252 315.786 382.955 318.049 380.672C320.311 378.389 321.581 375.305 321.581 372.09C321.581 368.876 320.311 365.792 318.049 363.509C315.786 361.226 312.714 359.929 309.5 359.9V359.9Z" fill="black"/>
<path d="M309.5 323.436H232.045C235.885 331.047 238.235 339.322 238.966 347.816H309.5C312.733 347.816 315.833 346.532 318.12 344.246C320.406 341.96 321.69 338.859 321.69 335.626C321.69 332.393 320.406 329.292 318.12 327.006C315.833 324.72 312.733 323.436 309.5 323.436Z" fill="black"/>
<path d="M199.674 433.284H310.181C313.233 433.284 316.16 434.496 318.318 436.655C320.477 438.813 321.689 441.74 321.689 444.792V446.157C321.689 449.209 320.477 452.136 318.318 454.294C316.16 456.452 313.233 457.665 310.181 457.665H199.673C196.621 457.665 193.694 456.452 191.536 454.294C189.377 452.136 188.165 449.209 188.165 446.157V444.793C188.165 441.741 189.378 438.813 191.536 436.655C193.694 434.496 196.622 433.284 199.674 433.284V433.284Z" fill="black"/>
<path d="M309.5 286.971H200.355C197.6 286.971 194.926 287.906 192.771 289.622C205.133 293.686 216.059 301.232 224.239 311.352H309.5C312.714 311.323 315.786 310.026 318.049 307.743C320.311 305.46 321.581 302.376 321.581 299.161C321.581 295.947 320.311 292.863 318.049 290.58C315.786 288.297 312.714 287 309.5 286.971V286.971Z" fill="black"/>
<path d="M22 445.247C22.0034 448.298 23.217 451.223 25.3744 453.381C27.5318 455.538 30.4569 456.752 33.508 456.755H144.015C147.066 456.752 149.991 455.538 152.149 453.381C154.306 451.223 155.52 448.298 155.523 445.247V443.883C155.519 441.194 154.574 438.59 152.852 436.525C151.13 434.459 148.74 433.06 146.095 432.572C145.178 432.682 144.256 432.74 143.333 432.746H34.19C33.2542 432.744 32.3193 432.688 31.39 432.578C28.7536 433.075 26.373 434.476 24.6589 436.539C22.9447 438.603 22.0044 441.2 22 443.883V445.247Z" fill="black"/>
<path d="M31.5862 420.459C32.2212 420.407 32.8612 420.374 33.5082 420.374H144.015C144.665 420.374 145.306 420.408 145.943 420.459C147.896 420.032 149.713 419.128 151.232 417.829C138.894 413.842 127.963 406.391 119.741 396.365H34.1901C31.1839 396.364 28.2835 397.475 26.0464 399.483C23.8093 401.491 22.3934 404.256 22.0709 407.244C21.7483 410.233 22.5419 413.236 24.2991 415.675C26.0562 418.115 28.653 419.818 31.5902 420.459H31.5862Z" fill="black"/>
<path d="M22 372.091C22.0026 375.323 23.2878 378.422 25.5733 380.708C27.8588 382.993 30.9578 384.278 34.19 384.281H111.834C107.937 376.681 105.532 368.405 104.75 359.9H34.19C30.9576 359.903 27.8585 361.188 25.5729 363.474C23.2874 365.759 22.0024 368.859 22 372.091V372.091Z" fill="black"/>
<path d="M490 226.61C489.997 223.599 488.814 220.708 486.705 218.558C484.595 216.409 481.728 215.171 478.717 215.11C478.641 215.11 478.567 215.11 478.492 215.11H367.985C367.909 215.11 367.835 215.11 367.76 215.11C364.749 215.171 361.882 216.409 359.773 218.558C357.663 220.708 356.48 223.599 356.477 226.61V227.975C356.48 230.986 357.663 233.875 359.77 236.025C361.878 238.174 364.744 239.413 367.754 239.475C367.831 239.475 367.907 239.469 367.985 239.469H478.492C478.569 239.469 478.646 239.469 478.723 239.475C481.733 239.413 484.599 238.174 486.706 236.025C488.814 233.875 489.997 230.986 490 227.975V226.61Z" fill="black"/>
<path d="M490 299.338C489.997 296.327 488.814 293.438 486.706 291.288C484.599 289.139 481.733 287.9 478.723 287.838C478.646 287.838 478.569 287.844 478.492 287.844H367.985C367.907 287.844 367.831 287.844 367.754 287.838C364.744 287.9 361.878 289.139 359.77 291.288C357.663 293.438 356.48 296.327 356.477 299.338V300.7C356.48 303.71 357.663 306.6 359.77 308.75C361.878 310.899 364.744 312.138 367.754 312.2C367.831 312.2 367.907 312.194 367.985 312.194H478.492C478.569 312.194 478.646 312.2 478.723 312.2C481.733 312.138 484.599 310.899 486.707 308.75C488.815 306.6 489.997 303.71 490 300.7V299.338Z" fill="black"/>
<path d="M490 446.156V444.792C489.996 441.779 488.812 438.888 486.702 436.738C484.591 434.588 481.722 433.351 478.71 433.292C478.637 433.292 478.565 433.298 478.492 433.298H367.985C367.912 433.298 367.84 433.298 367.767 433.292C364.755 433.351 361.886 434.588 359.775 436.738C357.664 438.888 356.48 441.779 356.477 444.792V446.156C356.48 449.207 357.694 452.133 359.851 454.29C362.009 456.448 364.934 457.662 367.985 457.665H478.492C481.543 457.661 484.468 456.448 486.626 454.29C488.783 452.132 489.997 449.207 490 446.156V446.156Z" fill="black"/>
<path d="M478.492 178.738H367.985C364.934 178.741 362.009 179.955 359.851 182.113C357.694 184.27 356.48 187.196 356.477 190.247V191.611C356.481 194.623 357.664 197.513 359.773 199.663C361.882 201.812 364.749 203.05 367.76 203.111C367.835 203.111 367.909 203.105 367.985 203.105H478.492C478.567 203.105 478.641 203.105 478.717 203.111C481.728 203.05 484.595 201.812 486.704 199.663C488.813 197.513 489.996 194.623 490 191.611V190.247C489.997 187.196 488.783 184.271 486.626 182.113C484.468 179.956 481.543 178.742 478.492 178.738Z" fill="black"/>
<path d="M490 262.974C489.997 259.964 488.814 257.074 486.706 254.925C484.599 252.775 481.733 251.537 478.723 251.474C478.646 251.474 478.569 251.48 478.492 251.48H367.985C367.907 251.48 367.831 251.48 367.754 251.474C364.744 251.536 361.878 252.775 359.77 254.924C357.663 257.074 356.48 259.964 356.477 262.974V264.338C356.481 267.349 357.663 270.238 359.771 272.388C361.878 274.537 364.744 275.776 367.754 275.838C367.831 275.838 367.907 275.832 367.985 275.832H478.492C478.569 275.832 478.646 275.832 478.723 275.838C481.733 275.775 484.598 274.537 486.706 272.387C488.814 270.238 489.996 267.349 490 264.338V262.974Z" fill="black"/>
<path d="M490 408.429C489.997 405.418 488.814 402.529 486.706 400.38C484.599 398.23 481.733 396.991 478.723 396.929C478.646 396.929 478.569 396.935 478.492 396.935H367.985C367.907 396.935 367.831 396.929 367.754 396.929C364.744 396.991 361.878 398.23 359.77 400.379C357.663 402.529 356.48 405.418 356.477 408.429V409.793C356.48 412.806 357.664 415.697 359.775 417.847C361.886 419.997 364.755 421.234 367.767 421.293C367.84 421.293 367.912 421.287 367.985 421.287H478.492C478.565 421.287 478.637 421.287 478.71 421.293C481.722 421.234 484.591 419.997 486.702 417.847C488.812 415.697 489.996 412.806 490 409.793V408.429Z" fill="black"/>
<path d="M490 372.064C489.997 369.051 488.813 366.16 486.702 364.01C484.591 361.86 481.722 360.623 478.71 360.564C478.637 360.564 478.565 360.564 478.492 360.564H367.985C367.912 360.564 367.84 360.564 367.767 360.564C364.755 360.623 361.885 361.86 359.775 364.01C357.664 366.159 356.48 369.051 356.477 372.064V373.429C356.481 376.439 357.663 379.329 359.771 381.478C361.878 383.628 364.744 384.866 367.754 384.929C367.831 384.929 367.907 384.923 367.985 384.923H478.492C478.569 384.923 478.646 384.923 478.723 384.929C481.733 384.866 484.598 383.628 486.706 381.478C488.814 379.329 489.996 376.439 490 373.429V372.064Z" fill="black"/>
<path d="M490 335.7C489.996 332.69 488.814 329.8 486.706 327.651C484.598 325.501 481.733 324.263 478.723 324.2C478.646 324.2 478.569 324.206 478.492 324.206H367.985C367.907 324.206 367.831 324.206 367.754 324.2C364.744 324.262 361.878 325.501 359.771 327.651C357.663 329.8 356.481 332.689 356.477 335.7V337.064C356.48 340.077 357.664 342.968 359.775 345.118C361.886 347.268 364.755 348.505 367.767 348.564C367.84 348.564 367.912 348.564 367.985 348.564H478.492C478.565 348.564 478.637 348.564 478.71 348.564C481.722 348.505 484.591 347.268 486.702 345.118C488.812 342.968 489.996 340.077 490 337.064V335.7Z" fill="black"/>
<circle cx="172" cy="353" r="54.5" fill="black"/>
<circle cx="172" cy="353" r="54.5" stroke="black"/>
<circle cx="172" cy="353" r="54.5" stroke="black" stroke-opacity="0.2"/>
<path d="M125 345.201C125.002 347.399 125.85 349.506 127.356 351.061C128.863 352.615 130.906 353.49 133.036 353.492H210.204C212.335 353.49 214.378 352.616 215.884 351.061C217.391 349.507 218.238 347.399 218.241 345.201V344.218C218.238 342.28 217.578 340.405 216.375 338.916C215.173 337.428 213.504 336.42 211.657 336.068C211.017 336.148 210.373 336.19 209.728 336.194H133.512C132.859 336.192 132.206 336.152 131.557 336.073C129.716 336.43 128.054 337.44 126.857 338.927C125.66 340.414 125.003 342.285 125 344.218V345.201Z" fill="#C4C4C4"/>
<path d="M125 371.139C125.002 373.337 125.85 375.444 127.356 376.999C128.863 378.553 130.906 379.428 133.036 379.43H210.204C212.335 379.428 214.378 378.554 215.884 376.999C217.391 375.445 218.238 373.337 218.241 371.139V370.156C218.238 368.218 217.578 366.343 216.375 364.854C215.173 363.366 213.504 362.358 211.657 362.006C211.017 362.086 210.373 362.127 209.728 362.132H133.512C132.859 362.13 132.206 362.09 131.557 362.011C129.716 362.368 128.054 363.378 126.857 364.865C125.66 366.352 125.003 368.223 125 370.156V371.139Z" fill="#C4C4C4"/>
<path d="M204.702 393H189.216L159.068 343.546V393H143.582V317.839H159.068L189.267 367.396V317.839H204.702V393Z" fill="#C4C4C4"/>
</svg>
