<svg width="1176" height="1952" viewBox="0 0 1176 1952" fill="none" xmlns="http://www.w3.org/2000/svg">
<path d="M588 1176C912.743 1176 1176 912.743 1176 588C1176 263.257 912.743 0 588 0C263.257 0 0 263.257 0 588C0 912.743 263.257 1176 588 1176ZM587.5 1048C333.173 1048 127 841.827 127 587.5C127 333.173 333.173 127 587.5 127C841.827 127 1048 333.173 1048 587.5C1048 841.827 841.827 1048 587.5 1048Z" fill="#CD3A3A"/>
<path d="M588 144L688.358 450.796H1013.12L750.382 640.407L850.74 947.204L588 757.593L325.26 947.204L425.618 640.407L162.878 450.796H487.642L588 144Z" fill="#C4C4C4"/>
<path fill-rule="evenodd" clip-rule="evenodd" d="M220 1131V1951.54L327 1879.05V1186.09C289.577 1170.81 253.797 1152.33 220 1131ZM386 1207.09V1839.08L609 1688L789 1809.95V1207.09C725.261 1226.53 657.602 1237 587.5 1237C517.398 1237 449.739 1226.53 386 1207.09ZM845 1187.3V1847.89L955 1922.41V1131C920.301 1152.9 883.512 1171.79 845 1187.3ZM588.5 1346L624.535 1456.9H741.145L646.805 1525.44L682.839 1636.34L588.5 1567.8L494.161 1636.34L530.195 1525.44L435.855 1456.9H552.465L588.5 1346Z" fill="#C4C4C4" fill-opacity="0.48"/>
</svg>
