<svg width="1603" height="387" viewBox="0 0 1603 387" fill="none" xmlns="http://www.w3.org/2000/svg">
<g clip-path="url(#clip0)">
<path d="M599.5 205C602.2 181.7 587.8 166.5 564.5 165.4C540.7 164.3 518 169.9 495.2 175.6C492.3 176.3 489.3 176.7 484.6 177.6C489.4 163.4 493.5 150.8 498.1 138.4C498.8 136.4 501.2 134.1 503.2 133.7C533.5 127.4 564 123.8 594.7 129.7C612.8 133.2 628.8 141.5 640 157C650.9 172.1 654.9 189.5 652.7 207.5C648.6 241.8 643.2 276 637.9 310.2C637.4 313.5 634.4 317.5 631.4 319.3C610.7 331.5 587.2 335.3 564 337C539.8 338.8 515.5 338.4 492 329C453.2 313.4 442.5 259.3 473.7 231.4C490.1 216.6 510.3 209.8 531.6 207.8C552.7 205.8 574 206.1 595.3 205.4C596.5 205.5 597.7 205.2 599.5 205ZM573.1 238.3C570.2 238.3 567.3 237.7 564.6 238.4C551.3 241.6 537.5 243.6 525 248.9C513.8 253.7 509.9 265.9 512.2 277.9C514.5 289.6 523.2 295.4 533.6 296.4C546.6 297.8 560.1 298 573 296.3C589.6 294.1 589.4 293 591.7 276.3C592.4 271.3 593.2 266.3 593.8 261.3C596.5 238.2 596.5 238.2 573.1 238.3Z" fill="#024288"/>
<path d="M1247.2 246.7C1239.6 246.7 1235.3 246.7 1230.9 246.7C1191.1 246.7 1151.4 246.8 1111.6 246.9C1099.8 246.9 1099.1 247.8 1100.5 259.5C1103 280.7 1120.9 295.8 1143.8 297.5C1164.9 299.1 1185.2 295.9 1205.3 289.7C1209.2 288.5 1213.3 287.8 1219.2 286.5C1217.4 293.2 1216.1 298.8 1214.4 304.3C1207 329.3 1207.1 330.1 1181.1 334.6C1151.8 339.7 1122.5 340.7 1094.4 327.8C1064.2 313.9 1049.5 289 1047 257.3C1043 206.2 1063.2 166 1107.6 140C1119.7 132.9 1134.8 129.4 1148.9 127.9C1168 125.8 1187.4 125.2 1205.8 134.3C1230 146.3 1244.6 165.1 1247 191.7C1248.4 209.3 1247.2 227 1247.2 246.7ZM1153.3 212.2C1153.3 212.1 1153.3 212.1 1153.3 212.2C1166 212.2 1178.7 212.4 1191.3 212C1194 211.9 1198.6 209.3 1198.8 207.5C1200.8 188.9 1195.1 171.4 1173 165.3C1149.9 159 1117.6 175.9 1109 204.6C1106.9 211.5 1111.5 212.1 1116.2 212.1C1128.6 212.3 1140.9 212.2 1153.3 212.2Z" fill="#024288"/>
<path d="M109.9 132.8C92.7 150 75.4 167.1 58.3 184.4C53 189.8 47.3 195 43 201.1C41.5 203.3 42.3 209.3 44.2 211.2C53.2 220.2 63.4 228 72.3 237C83.4 248.2 93.2 260.6 104.2 271.8C126.9 294.9 150.1 317.6 173.1 340.3C176.6 343.7 180.1 348.1 184.3 349.3C188.4 350.5 195.2 349.8 198 347.1C216.9 329 235 310 253.5 291.5C278.8 266.2 304.2 241 329.5 215.7C336.5 208.7 336.5 201.7 329.3 194.5C312.3 177.7 294.9 161.3 278.1 144.4C259.3 125.6 241 106.3 222.4 87.3C205.6 70.1 189.3 52.3 171.7 36C159.9 25 165.1 13.4 166 0C170.2 1.8 173.7 2.2 175.6 4.2C187.8 17 199.4 30.3 211.6 43.1C226.4 58.5 241.6 73.6 256.8 88.7C277.7 109.4 298.9 129.9 319.8 150.6C335.4 166.1 350.8 181.7 366.1 197.4C370.9 202.3 372.8 207.2 366.4 213.4C332.3 246.7 298.6 280.3 264.9 313.9C241.8 336.9 218.7 359.8 195.9 383C191 387.9 187.3 388.4 182.5 383.2C176.3 376.6 169.7 370.4 163.3 364C142.6 343.3 121.9 322.7 101.3 302C80.9 281.5 60.7 260.8 40.2 240.4C31 231.2 21.2 222.5 11.8 213.5C7.1 208.9 5.7 203.1 10.4 198.4C31.7 177.2 53.8 156.8 74.7 135.3C85.6 124.1 97.2 130 108.6 129.8C109 130.8 109.4 131.8 109.9 132.8Z" fill="#EB8747"/>
<path d="M1590.9 177C1577.2 173.3 1564.9 169.2 1552.3 166.7C1538.8 164 1525.3 164.2 1512.8 171.9C1502.4 178.3 1500.4 190.6 1510.4 197.9C1521.8 206.2 1534.7 212.5 1546.9 219.7C1564.1 230 1580.2 241.4 1583.5 263.2C1588.1 292.6 1570.6 319 1540.1 329.6C1506.8 341.2 1473.4 338.9 1439.9 331.1C1418.8 326.2 1418.8 325.8 1424.9 305.1C1430.7 285.4 1430.6 285.6 1450.5 291.5C1468.6 296.9 1487.2 299.2 1505.8 295.2C1511.5 294 1517.3 291.1 1521.8 287.5C1529.5 281.5 1530.1 270.8 1522.8 264.1C1516.1 258 1508 253.4 1500.3 248.4C1490 241.7 1479.3 235.6 1469.1 228.8C1439.4 209 1443.5 160.8 1478.9 140.6C1504.4 126.1 1531.7 125.8 1559.3 128.1C1571.8 129.1 1584 133.4 1596.3 136C1602.1 137.2 1603.4 140 1601.4 145.4C1597.8 155.8 1594.5 166.3 1590.9 177Z" fill="#024288"/>
<path d="M1364.1 125.1C1383 128.6 1401.8 132.1 1420.7 135.6C1426.6 136.7 1428.4 140 1426.3 145.9C1423.4 153.9 1420.6 162.1 1418.3 170.3C1416.6 176.3 1414 177 1407.9 175.5C1391.7 171.6 1375.4 167.8 1358.9 166.1C1352 165.4 1343.8 168.5 1337.5 172.2C1326.7 178.5 1326.1 192.1 1336.4 199.2C1347.8 207 1360.5 213.1 1372.5 220.2C1388.3 229.6 1402.7 240.2 1407.7 259.4C1413.3 281 1404.3 305.4 1386 318.2C1359.8 336.7 1330.1 339.6 1299.6 336.7C1283.3 335.2 1267.3 330.6 1251.2 327.4C1245.2 326.2 1243.5 323.1 1245.9 317.1C1249.2 308.9 1252 300.4 1254.5 291.9C1256.3 285.7 1258.9 285 1264.8 287.4C1285.1 295.6 1306.1 299.7 1327.9 295.4C1332.8 294.4 1337.8 293 1342.2 290.6C1355.5 283.4 1357 269.8 1344.7 260.7C1334.6 253.2 1322.9 247.9 1312.1 241.3C1306.1 237.7 1300.6 233.4 1294.8 229.6C1266.7 210.8 1268.9 165.1 1297.2 145.3C1317.3 131.2 1339.6 126.4 1363.7 127.5C1363.8 126.6 1364 125.9 1364.1 125.1Z" fill="#024288"/>
<path d="M838.4 290.1C834.6 302.4 830.9 315.2 826.5 327.6C825.6 330.2 821.8 333 819 333.4C794.8 337.2 770.3 340.5 746.1 335.2C705.4 326.3 678.3 302.3 672.9 257.3C668.1 217.7 681.1 183.4 710.7 156C729.6 138.5 752.7 129.6 777.8 127.8C803.4 126 829.2 126.2 854.1 135C861.5 137.6 863.6 140.7 860.5 148.1C857.3 155.7 855 163.6 852.7 171.5C851.2 176.6 849 177.4 843.7 176.4C828.6 173.5 813.3 169.8 798 169.8C748.4 169.7 716 223 738.9 266.9C748.8 285.9 766.5 295.1 787.4 295.1C803.9 295.1 820.6 291.9 838.4 290.1Z" fill="#024288"/>
<path d="M1026.5 289.8C1022.2 302.9 1018.5 316.9 1012.8 330C1011.4 333.1 1003.4 334 998.3 334.6C976 337.6 953.7 339.2 931.2 334.1C882.2 323 860 288.4 860 244C860 197.9 880.8 162 922.1 140.3C934.7 133.7 949.5 129.7 963.7 128.3C989.9 125.6 1016.2 126.3 1041.7 135C1049.1 137.5 1051 140.9 1048.1 148C1045.9 153.3 1044.5 158.8 1042.8 164.2C1038 179 1038 179 1023.2 174.1C1005 168.1 986.7 167.4 968.1 172.5C936.8 181.1 917.3 210.8 919.4 243.2C921.5 275.5 952.2 296.9 977.8 295.3C993.6 294.3 1009.3 291.8 1026.5 289.8Z" fill="#024288"/>
<path d="M169.3 54C176.8 62 184 70.1 191.7 77.9C202.3 88.6 213.4 99 224.1 109.7C248.1 133.8 272 158 296 182.1C301.6 187.7 307.3 193.2 313.3 198.4C318.5 203 318.5 206.4 313.3 211.5C287.5 236.8 262.1 262.4 236.6 287.9C222.5 302 208.2 316 194.2 330.3C190.4 334.2 188 334.3 184.1 330.4C172.6 318.8 160.7 307.8 149.2 296.3C121.7 268.9 94.2 241.4 66.8 213.8C64.2 211.1 61.9 208.1 57.9 203.5C73.4 188.6 88.7 174 103.9 159.3C111.1 152.3 118.1 145.2 124.7 137.7C130.5 131.1 137 127.6 146.1 128.8C151.4 129.5 156.8 128.9 162.2 128.9C162.8 129.8 163.5 130.7 164.1 131.5C157.8 138.3 151.8 145.2 145.3 151.8C130.4 166.9 115.3 181.7 100.3 196.7C94.3 202.8 94.5 209 100.5 215C127 241.1 153.4 267.1 179.9 293.3C185.1 298.4 192.9 299.1 197.8 294.3C217.6 274.5 237.3 254.7 257 234.9C264.5 227.3 271.7 219.4 279.4 212C284.3 207.3 283.6 203.3 279.3 199C248 167.9 216.4 137 185.5 105.4C177.1 96.8 169.6 86.7 164 76.1C161.3 70.8 164 62.7 164.2 55.8C165.8 55.1 167.5 54.6 169.3 54Z" fill="#EB8747"/>
<path d="M188.2 128.9C212.3 152.9 235.7 176.3 259.3 199.4C264.3 204.3 263.1 207.9 258.7 212.2C238.7 232 218.8 251.8 198.8 271.7C189.3 281.1 189.4 281.1 179.8 271.7C161.7 254 143.7 236.2 125.4 218.7C112.3 206.2 111.8 205.2 124.2 192C131.6 184.1 140.1 177.1 147.8 169.5C161.2 156.4 174.4 142.9 188.2 128.9ZM144.1 201.5C145.2 202.8 146.3 204.1 147.5 205.4C148.1 206.5 148.5 207.8 149.3 208.6C161.1 220.5 172.7 232.5 184.9 243.9C186.4 245.3 192.1 244.6 194 242.8C204.4 233.1 213.9 222.4 224.5 212.9C231.3 206.8 229.7 202.3 224.5 197.1C214.7 187.3 205.2 177.2 194.9 168.1C192.7 166.2 186.1 166.1 183.7 168C170.1 178.6 157.3 190.2 144.1 201.5Z" fill="#EB8747"/>
</g>
<defs>
<clipPath id="clip0">
<rect width="1602.4" height="386.9" fill="white"/>
</clipPath>
</defs>
</svg>
