<svg width="930" height="385" viewBox="0 0 930 385" fill="none" xmlns="http://www.w3.org/2000/svg">
<path d="M225.339 269.231L175.831 185.819L-0.000123374 368.333L170.885 250.298L225.339 269.231Z" fill="#EC3237"/>
<path d="M52.8066 273.374L176.024 0L346.182 383.605L176.024 129.338L52.8066 273.374Z" fill="#737479"/>
<path d="M386.476 150.137H359.35L354.193 165.608H337.742L365.693 90.5226H380.03L408.135 165.608H391.684L386.476 150.137ZM363.527 137.606H382.299L372.861 109.5L363.527 137.606ZM415.149 165.608V90.5226H438.252C444.853 90.5226 450.749 92.0181 455.941 95.0092C461.166 97.9658 465.24 102.195 468.163 107.695C471.085 113.162 472.546 119.385 472.546 126.364V129.819C472.546 136.798 471.102 143.004 468.214 148.436C465.361 153.868 461.321 158.079 456.095 161.07C450.87 164.061 444.973 165.574 438.407 165.608H415.149ZM430.62 103.054V153.18H438.097C444.148 153.18 448.772 151.203 451.97 147.25C455.167 143.296 456.8 137.64 456.869 130.283V126.312C456.869 118.68 455.287 112.904 452.124 108.985C448.962 105.031 444.337 103.054 438.252 103.054H430.62ZM509.573 116.411L523.652 90.5226H541.444L519.578 127.756L542.011 165.608H524.013L509.573 139.308L495.134 165.608H477.136L499.569 127.756L477.703 90.5226H495.495L509.573 116.411ZM635.095 140.597C634.51 148.676 631.519 155.037 626.121 159.678C620.758 164.319 613.676 166.64 604.875 166.64C595.248 166.64 587.667 163.408 582.132 156.945C576.631 150.447 573.881 141.542 573.881 130.231V125.642C573.881 118.422 575.153 112.062 577.697 106.561C580.241 101.06 583.868 96.8485 588.579 93.9262C593.323 90.9695 598.824 89.4912 605.081 89.4912C613.745 89.4912 620.724 91.8118 626.018 96.4531C631.313 101.094 634.373 107.609 635.198 115.998H619.727C619.349 111.151 617.991 107.644 615.653 105.478C613.349 103.278 609.825 102.177 605.081 102.177C599.924 102.177 596.056 104.034 593.478 107.747C590.934 111.426 589.627 117.15 589.558 124.92V130.592C589.558 138.706 590.779 144.637 593.22 148.384C595.695 152.131 599.58 154.005 604.875 154.005C609.653 154.005 613.212 152.922 615.55 150.756C617.922 148.556 619.28 145.17 619.624 140.597H635.095ZM673.05 138.122H660.725V165.608H645.254V90.5226H673.153C682.023 90.5226 688.865 92.4994 693.678 96.4531C698.491 100.407 700.898 105.994 700.898 113.213C700.898 118.336 699.78 122.616 697.546 126.054C695.345 129.458 691.993 132.174 687.49 134.202L703.734 164.886V165.608H687.129L673.05 138.122ZM660.725 125.59H673.205C677.09 125.59 680.098 124.61 682.23 122.651C684.361 120.657 685.427 117.923 685.427 114.451C685.427 110.91 684.413 108.125 682.384 106.097C680.39 104.068 677.313 103.054 673.153 103.054H660.725V125.59ZM757.883 133.068H728.178V153.18H763.04V165.608H712.707V90.5226H762.936V103.054H728.178V120.949H757.883V133.068ZM772.116 165.608V90.5226H795.219C801.82 90.5226 807.716 92.0181 812.908 95.0092C818.134 97.9658 822.208 102.195 825.13 107.695C828.052 113.162 829.513 119.385 829.513 126.364V129.819C829.513 136.798 828.069 143.004 825.181 148.436C822.328 153.868 818.288 158.079 813.062 161.07C807.837 164.061 801.941 165.574 795.374 165.608H772.116ZM787.587 103.054V153.18H795.065C801.115 153.18 805.74 151.203 808.937 147.25C812.134 143.296 813.767 137.64 813.836 130.283V126.312C813.836 118.68 812.255 112.904 809.092 108.985C805.929 105.031 801.305 103.054 795.219 103.054H787.587ZM857.258 165.608H841.787V90.5226H857.258V165.608ZM926.619 103.054H903.619V165.608H888.148V103.054H865.458V90.5226H926.619V103.054Z" fill="#EC3237"/>
<path d="M464.759 277.18H497.609V289.608H449.288V214.523H464.759V277.18ZM522.982 289.608H507.511V214.523H522.982V289.608ZM557.585 214.523L576.872 268.98L596.056 214.523H616.375V289.608H600.852V269.084L602.399 233.655L582.132 289.608H571.509L551.293 233.707L552.841 269.084V289.608H537.37V214.523H557.585ZM646.337 289.608H630.866V214.523H646.337V289.608ZM715.698 227.054H692.698V289.608H677.227V227.054H654.536V214.523H715.698V227.054ZM769.744 257.068H740.039V277.18H774.901V289.608H724.568V214.523H774.798V227.054H740.039V244.949H769.744V257.068ZM783.977 289.608V214.523H807.08C813.681 214.523 819.577 216.018 824.769 219.009C829.995 221.966 834.069 226.195 836.991 231.695C839.913 237.162 841.374 243.385 841.374 250.364V253.819C841.374 260.798 839.93 267.004 837.042 272.436C834.189 277.868 830.149 282.079 824.924 285.07C819.698 288.061 813.802 289.574 807.235 289.608H783.977ZM799.448 227.054V277.18H806.926C812.977 277.18 817.601 275.203 820.798 271.25C823.995 267.296 825.628 261.64 825.697 254.283V250.312C825.697 242.68 824.116 236.904 820.953 232.985C817.79 229.031 813.166 227.054 807.08 227.054H799.448Z" fill="#737479"/>
</svg>
