<svg width="1986" height="387" viewBox="0 0 1986 387" fill="none" xmlns="http://www.w3.org/2000/svg">
<g clip-path="url(#clip0)">
<path d="M362.1 105.1C334.7 107.5 312.8 107.5 291 85.1999C246 38.9999 163 36.4999 110.8 74.2999C53 116 32.7 190.8 61.9 254.7C91 318.4 158.7 352.9 225.8 338C293.8 322.9 341.8 263 341.5 195C341.4 180.7 336.3 175.8 322.5 176.6C309.3 177.4 295.9 176.2 282.7 176.8C262.1 177.8 245.4 176.1 230.9 156.1C214.7 133.7 178.8 135.8 158 155.6C136.8 175.8 135.5 208.7 155.1 230.8C174.3 252.3 206.1 255 228.5 237.1C253.6 217 260 215.4 293.1 220.8C289.5 264 236.5 303.4 188.3 298.8C138.3 294.1 100.7 261 91.8 213.9C83.2 168.4 105.8 122.8 147.5 101.5C190.1 79.6999 240.1 88.6999 272.7 127.5C286.1 143.4 299.6 149.8 319.3 147.8C331.2 146.6 343.3 147.6 355.3 147.6C381.3 147.6 381.3 147.6 384.1 172.8C394.2 263.9 338.5 347.7 252.4 377.5C151.9 412.1 36.5 347 9.6 246.1C-18.8 139.6 45.4 34.6999 152.4 7.59987C225.7 -11.0001 317.9 29.3999 355.7 92.7999C357.8 96.3999 359.6 100.3 362.1 105.1Z" fill="#209242"/>
<path d="M1218.3 148.8C1234.2 148.8 1247.4 148.8 1263.6 148.8C1263.6 165.7 1263.6 182.4 1263.6 199.2C1263.6 216.9 1263.4 234.6 1263.7 252.3C1264.1 275.4 1275.4 287.6 1296.1 288.4C1318.8 289.2 1333 276.4 1333.6 252.8C1334.4 225 1333.8 197.2 1333.8 169.3C1333.8 163.1 1333.8 156.9 1333.8 149.4C1349 149.4 1362.5 149.4 1375.7 149.4C1375.7 192.2 1381.4 235.7 1374.3 277C1365.2 329.4 1296.6 350.1 1252.5 318.6C1248.5 315.7 1244.7 312.4 1240.1 308.7C1221.6 324.9 1201.2 334.5 1176.3 333C1137.4 330.7 1107.7 306.7 1104.7 268C1101.6 229.2 1104 190 1104 149.5C1117.9 149.5 1131.9 149.5 1148.4 149.5C1148.4 184.6 1147.9 219.2 1148.6 253.7C1149.1 278.5 1164.1 291 1187.9 288.1C1206.4 285.9 1217.9 272.3 1218.1 250.9C1218.5 217.5 1218.3 184.1 1218.3 148.8Z" fill="#006837"/>
<path d="M1939.6 162.3C1939.6 130.6 1939.6 100.2 1939.6 68.5996C1955 68.5996 1968.7 68.5996 1983.3 68.5996C1983.9 71.2996 1985.2 74.1996 1985.2 77.0996C1985.3 132.1 1986 187 1985.1 242C1984.3 289 1951.8 324.8 1905.9 332C1862.7 338.8 1820.6 313.9 1805.9 271.4C1793.1 234.3 1799.9 200 1826.6 171.2C1849 147.1 1877 138.1 1909.3 147.8C1919.1 150.9 1928.2 156.8 1939.6 162.3ZM1939.4 239.4C1939.7 209.9 1918.2 185.7 1892.2 186C1866.8 186.3 1846 209.8 1845.8 238.4C1845.6 266.7 1866.5 290.3 1892.1 290.6C1917.8 290.9 1939.2 267.7 1939.4 239.4Z" fill="#006837"/>
<path d="M892.9 219C850.3 237 808.7 254.6 766.7 272.5C784.8 293.5 812.5 300.9 829.4 285.2C848.3 267.6 868.6 273.1 889.3 272.3C884 308.9 843.8 335.6 799.5 332.7C752.1 329.6 714.3 289.4 713.1 241C711.9 191.7 748.4 148.9 795.9 144C843.9 139 883.9 169.1 892.9 219ZM755 236.9C785.4 224.1 812.6 212.6 841.4 200.4C824.7 183.1 807.3 180 788.8 186.5C767.7 193.8 758.2 210.8 755 236.9Z" fill="#006837"/>
<path d="M699.7 219C657 237.1 615.5 254.7 573.4 272.5C591.4 293.7 619 301.1 636.1 285.3C655 267.8 675.2 273 696 272.5C690.4 309.3 650.2 335.9 606.1 332.7C558.6 329.2 520.8 289.1 519.7 240.9C518.6 191.7 555 149.2 602.8 144C650.4 138.9 690.1 168.8 699.7 219ZM561.5 237C592.1 224.1 619.2 212.6 648.6 200.1C630.9 183.2 613.6 179.8 595.2 186.5C574.2 194.1 564.9 211.2 561.5 237Z" fill="#006837"/>
<path d="M1400.2 238.3C1400.4 185.5 1440.4 143.7 1491 143.6C1541.2 143.5 1581.9 185.9 1581.9 238.4C1582 290.7 1541.3 333.1 1490.9 332.9C1440.1 332.8 1400.1 291 1400.2 238.3ZM1445.8 238.4C1445.7 268.6 1465 291.1 1490.9 291.1C1515.6 291 1535.7 268.5 1536.4 240.1C1537.1 210.1 1516.3 185.2 1490.7 185.2C1465.4 185.2 1445.9 208.3 1445.8 238.4Z" fill="#006837"/>
<path d="M1073.3 328.1C1058.1 328.1 1045 328.1 1028.5 328.1C1028.5 314.2 1028.5 300.6 1028.5 287.1C1028.5 265 1028.9 242.9 1028.3 220.8C1027.7 199.7 1015.2 188.3 994.5 188.3C974.2 188.3 960 200.2 959.3 220C958.4 248.4 959 276.8 958.9 305.3C958.9 312.1 958.9 319 958.9 327.3C943.5 327.3 929.4 327.3 915.4 327.3C915.4 285.6 912 243.8 916.4 202.9C920.4 165.1 957.6 141.9 999.3 143.8C1039.5 145.7 1069.6 170 1072.6 209.3C1075.6 248 1073.3 287.3 1073.3 328.1Z" fill="#006837"/>
<path d="M1794.6 288.9C1794.6 302 1794.6 313.8 1794.6 325.5C1756.3 336.3 1718.4 310.9 1716.6 268.4C1713.9 202.4 1715.9 136.2 1715.9 68.7998C1730.8 68.7998 1744.9 68.7998 1760.8 68.7998C1760.8 111.1 1760.8 152.5 1760.8 194C1760.8 211.7 1760.7 229.3 1760.8 247C1761 276.7 1765.2 282 1794.6 288.9Z" fill="#006837"/>
<path d="M513.8 146.1C513.8 158.8 513.8 171.8 513.8 184.6C472.3 189.9 465.7 197.5 465.7 239C465.7 267.9 465.7 296.9 465.7 327.3C450.4 327.3 436.4 327.3 422.2 327.3C422.2 285.2 418.9 243.4 423.1 202.4C427.3 161.5 468.7 138 513.8 146.1Z" fill="#006837"/>
<path d="M1696.1 146.1C1696.1 158.8 1696.1 171.7 1696.1 184.6C1655.1 190 1647.7 198.5 1647.6 239.2C1647.6 266.9 1647.5 294.7 1647.4 322.4C1647.4 323.6 1646.7 324.8 1645.9 327.4C1632.3 327.4 1618.3 327.4 1604 327.4C1604 287 1601.1 247.2 1604.8 208.1C1609.1 162.6 1648.6 137.6 1696.1 146.1Z" fill="#006837"/>
<path d="M222.4 194.7C210 203.8 203.2 212.6 195.3 213.8C183.3 215.5 173.9 205.8 176.5 194.1C178.1 186.8 188.4 176.9 195.4 176.4C202.3 175.8 209.9 185.7 222.4 194.7Z" fill="#006837"/>
</g>
<defs>
<clipPath id="clip0">
<rect width="1985.5" height="386.9" fill="white"/>
</clipPath>
</defs>
</svg>
