<svg width="1291" height="254" viewBox="0 0 1291 254" fill="none" xmlns="http://www.w3.org/2000/svg">
<path d="M30.1351 28.4729C-17.5217 77.7729 20.6027 126.388 42.0003 144.533H114.356C120.929 143.301 125.654 148.813 127.194 151.723L148.25 91.1251C159.753 73.4593 169.134 83.7644 172.386 91.1251L192.414 144.533H270C281.812 134.776 331.071 79.3137 290.501 33.0949C232.573 -17.8485 177.35 25.9052 156.98 54.15C139.519 28.4729 79.4349 -17.2321 30.1351 28.4729Z" fill="#0288DF"/>
<path d="M107.166 165.075H55.2984C76.696 189.041 123.805 239.333 141.06 248.783C158.315 258.232 171.188 252.72 175.467 248.783L259.688 165.075H182.143C176.803 165.075 173.413 159.597 172.386 156.859L160.575 125.019L135.925 191.266C130.173 200.715 120.176 194.176 115.896 189.725L107.166 165.075Z" fill="#0288DF"/>
<path d="M290.066 24.096C234.305 -28.2853 178.122 18.4636 157 48.3857L262.607 161.386L284.785 139.208C304.851 119.143 333.998 68.0288 290.066 24.096Z" fill="#4DACEA"/>
<path d="M23.8775 23.6511C79.6622 -28.7527 135.87 18.0163 157 47.9513L51.3473 161L29.1601 138.813C9.08604 118.739 -20.0742 67.6028 23.8775 23.6511Z" fill="#00D96D"/>
<path d="M35.5 145H67L54.5 165L35.5 145Z" fill="#E5E5E5"/>
<path d="M278.5 145.5H248L263 161.5L278.5 145.5Z" fill="#E5E5E5"/>
<path d="M434.524 165H411.819V117.773H367.544V165H344.839V54.8047H367.544V99.458H411.819V54.8047H434.524V165ZM490.681 166.514C478.673 166.514 468.884 162.83 461.316 155.464C453.798 148.097 450.039 138.284 450.039 126.023V123.904C450.039 115.68 451.628 108.338 454.807 101.88C457.986 95.3711 462.476 90.376 468.279 86.8945C474.132 83.3626 480.792 81.5967 488.259 81.5967C499.46 81.5967 508.265 85.1286 514.673 92.1924C521.131 99.2562 524.36 109.272 524.36 122.239V131.169H472.214C472.921 136.518 475.04 140.806 478.572 144.036C482.154 147.265 486.67 148.879 492.119 148.879C500.545 148.879 507.13 145.827 511.873 139.722L522.62 151.755C519.34 156.397 514.9 160.03 509.299 162.654C503.699 165.227 497.493 166.514 490.681 166.514ZM488.184 99.3066C483.844 99.3066 480.312 100.77 477.588 103.696C474.914 106.623 473.198 110.811 472.441 116.26H502.866V114.519C502.765 109.675 501.453 105.942 498.931 103.318C496.408 100.644 492.826 99.3066 488.184 99.3066ZM584.302 165C583.293 163.032 582.561 160.585 582.107 157.659C576.809 163.562 569.922 166.514 561.445 166.514C553.423 166.514 546.763 164.193 541.465 159.551C536.217 154.909 533.594 149.056 533.594 141.992C533.594 133.314 536.798 126.654 543.206 122.012C549.664 117.37 558.973 115.024 571.133 114.973H581.199V110.281C581.199 106.497 580.215 103.469 578.247 101.199C576.33 98.9282 573.277 97.793 569.089 97.793C565.406 97.793 562.505 98.6759 560.386 100.442C558.317 102.208 557.283 104.63 557.283 107.708H535.41C535.41 102.965 536.873 98.575 539.8 94.5386C542.726 90.5021 546.864 87.3486 552.212 85.0781C557.56 82.7572 563.564 81.5967 570.225 81.5967C580.316 81.5967 588.313 84.1447 594.216 89.2407C600.17 94.2863 603.147 101.401 603.147 110.583V146.079C603.197 153.849 604.282 159.727 606.401 163.713V165H584.302ZM566.213 149.788C569.443 149.788 572.419 149.081 575.144 147.668C577.869 146.205 579.887 144.263 581.199 141.841V127.764H573.025C562.076 127.764 556.248 131.548 555.542 139.116L555.466 140.403C555.466 143.127 556.425 145.373 558.342 147.139C560.26 148.905 562.883 149.788 566.213 149.788ZM643.032 165H621.084V48.75H643.032V165ZM687.307 62.9785V83.1104H701.309V99.1553H687.307V140.024C687.307 143.052 687.887 145.221 689.048 146.533C690.208 147.845 692.428 148.501 695.708 148.501C698.13 148.501 700.274 148.324 702.141 147.971V164.546C697.852 165.858 693.438 166.514 688.896 166.514C673.558 166.514 665.737 158.769 665.435 143.279V99.1553H653.477V83.1104H665.435V62.9785H687.307ZM734.836 92.041C740.639 85.0781 747.93 81.5967 756.709 81.5967C774.469 81.5967 783.476 91.9149 783.728 112.551V165H761.855V113.157C761.855 108.464 760.846 105.008 758.828 102.788C756.81 100.518 753.455 99.3823 748.762 99.3823C742.354 99.3823 737.712 101.855 734.836 106.799V165H712.964V48.75H734.836V92.041ZM858.806 136.089C858.806 131.8 857.292 128.521 854.265 126.25C851.238 123.929 845.789 121.507 837.917 118.984C830.046 116.411 823.815 113.888 819.224 111.416C806.711 104.655 800.454 95.5477 800.454 84.0942C800.454 78.1405 802.119 72.8426 805.449 68.2007C808.83 63.5083 813.648 59.8503 819.905 57.2266C826.212 54.6029 833.276 53.291 841.096 53.291C848.967 53.291 855.981 54.729 862.136 57.605C868.292 60.4305 873.06 64.4417 876.44 69.6387C879.871 74.8356 881.587 80.7389 881.587 87.3486H858.882C858.882 82.3031 857.292 78.3927 854.114 75.6177C850.935 72.7922 846.47 71.3794 840.718 71.3794C835.168 71.3794 830.854 72.5651 827.776 74.9365C824.698 77.2575 823.159 80.3353 823.159 84.1699C823.159 87.7523 824.95 90.7544 828.533 93.1763C832.166 95.5981 837.489 97.8687 844.502 99.9878C857.419 103.873 866.829 108.691 872.732 114.443C878.635 120.195 881.587 127.36 881.587 135.938C881.587 145.474 877.979 152.966 870.764 158.416C863.549 163.814 853.836 166.514 841.626 166.514C833.149 166.514 825.43 164.975 818.467 161.897C811.504 158.769 806.181 154.505 802.498 149.106C798.865 143.708 797.048 137.451 797.048 130.337H819.829C819.829 142.497 827.095 148.577 841.626 148.577C847.025 148.577 851.238 147.492 854.265 145.322C857.292 143.102 858.806 140.024 858.806 136.089ZM921.775 62.9785V83.1104H935.776V99.1553H921.775V140.024C921.775 143.052 922.355 145.221 923.516 146.533C924.676 147.845 926.896 148.501 930.176 148.501C932.598 148.501 934.742 148.324 936.609 147.971V164.546C932.32 165.858 927.905 166.514 923.364 166.514C908.026 166.514 900.205 158.769 899.902 143.279V99.1553H887.944V83.1104H899.902V62.9785H921.775ZM995.415 165C994.406 163.032 993.674 160.585 993.22 157.659C987.922 163.562 981.035 166.514 972.559 166.514C964.536 166.514 957.876 164.193 952.578 159.551C947.331 154.909 944.707 149.056 944.707 141.992C944.707 133.314 947.911 126.654 954.319 122.012C960.777 117.37 970.086 115.024 982.246 114.973H992.312V110.281C992.312 106.497 991.328 103.469 989.36 101.199C987.443 98.9282 984.39 97.793 980.203 97.793C976.519 97.793 973.618 98.6759 971.499 100.442C969.43 102.208 968.396 104.63 968.396 107.708H946.523C946.523 102.965 947.987 98.575 950.913 94.5386C953.84 90.5021 957.977 87.3486 963.325 85.0781C968.674 82.7572 974.678 81.5967 981.338 81.5967C991.429 81.5967 999.426 84.1447 1005.33 89.2407C1011.28 94.2863 1014.26 101.401 1014.26 110.583V146.079C1014.31 153.849 1015.4 159.727 1017.51 163.713V165H995.415ZM977.327 149.788C980.556 149.788 983.533 149.081 986.257 147.668C988.982 146.205 991 144.263 992.312 141.841V127.764H984.138C973.189 127.764 967.362 131.548 966.655 139.116L966.58 140.403C966.58 143.127 967.538 145.373 969.456 147.139C971.373 148.905 973.997 149.788 977.327 149.788ZM1057.25 62.9785V83.1104H1071.25V99.1553H1057.25V140.024C1057.25 143.052 1057.83 145.221 1058.99 146.533C1060.15 147.845 1062.37 148.501 1065.65 148.501C1068.07 148.501 1070.22 148.324 1072.08 147.971V164.546C1067.79 165.858 1063.38 166.514 1058.84 166.514C1043.5 166.514 1035.68 158.769 1035.38 143.279V99.1553H1023.42V83.1104H1035.38V62.9785H1057.25ZM1106.52 165H1084.57V83.1104H1106.52V165ZM1083.28 61.9189C1083.28 58.6393 1084.37 55.9399 1086.54 53.8208C1088.76 51.7017 1091.76 50.6421 1095.54 50.6421C1099.28 50.6421 1102.26 51.7017 1104.48 53.8208C1106.7 55.9399 1107.81 58.6393 1107.81 61.9189C1107.81 65.249 1106.67 67.9736 1104.4 70.0928C1102.18 72.2119 1099.23 73.2715 1095.54 73.2715C1091.86 73.2715 1088.88 72.2119 1086.61 70.0928C1084.39 67.9736 1083.28 65.249 1083.28 61.9189ZM1121.2 123.298C1121.2 115.175 1122.77 107.935 1125.89 101.577C1129.02 95.2197 1133.51 90.3003 1139.37 86.8188C1145.27 83.3374 1152.11 81.5967 1159.88 81.5967C1170.93 81.5967 1179.93 84.9772 1186.89 91.7383C1193.91 98.4993 1197.82 107.682 1198.63 119.287L1198.78 124.888C1198.78 137.451 1195.27 147.542 1188.26 155.161C1181.24 162.729 1171.83 166.514 1160.03 166.514C1148.22 166.514 1138.78 162.729 1131.72 155.161C1124.71 147.593 1121.2 137.3 1121.2 124.282V123.298ZM1143.07 124.888C1143.07 132.658 1144.54 138.612 1147.46 142.749C1150.39 146.836 1154.58 148.879 1160.03 148.879C1165.32 148.879 1169.46 146.861 1172.44 142.825C1175.42 138.738 1176.9 132.229 1176.9 123.298C1176.9 115.68 1175.42 109.776 1172.44 105.588C1169.46 101.401 1165.27 99.3066 1159.88 99.3066C1154.53 99.3066 1150.39 101.401 1147.46 105.588C1144.54 109.726 1143.07 116.159 1143.07 124.888ZM1232.38 83.1104L1233.06 92.5708C1238.91 85.2547 1246.76 81.5967 1256.6 81.5967C1265.28 81.5967 1271.74 84.1447 1275.97 89.2407C1280.21 94.3368 1282.38 101.956 1282.48 112.097V165H1260.61V112.627C1260.61 107.985 1259.6 104.63 1257.58 102.561C1255.56 100.442 1252.21 99.3823 1247.52 99.3823C1241.36 99.3823 1236.74 102.006 1233.67 107.253V165H1211.79V83.1104H1232.38Z" fill="#7B7B7B"/>
</svg>
