<svg width="2745" height="387" viewBox="0 0 2745 387" fill="none" xmlns="http://www.w3.org/2000/svg">
<g clip-path="url(#clip0)">
<path d="M357.5 194.227C345.109 182.23 330.389 171.779 320.706 157.809C294.031 119.471 304.578 72.3779 343.58 46.5417C377.246 24.2388 429.506 34.6226 449.518 67.6507C474.757 109.437 465.443 157.187 427.196 182.065C422.924 184.831 419.186 188.287 415.128 191.349C395.955 192.375 376.678 193.303 357.5 194.227Z" fill="#02A626"/>
<path d="M392.7 218.878C494.3 220.923 559.9 266.534 603.2 347.222C607.9 355.915 608.4 372.073 603.5 379.845C595.3 392.628 584.6 385.265 574.2 376.368C545.6 352.029 518 324.928 485.7 307.031C419 270.216 351.9 280.238 289.9 321.451C266.7 336.791 247.7 358.676 225.9 376.368C220.4 380.868 207.2 384.651 204.7 381.89C198.7 375.345 192.2 362.869 194.6 356.119C199.8 341.802 209.8 328.916 219.3 316.644C266.1 256.512 325.3 220.31 392.7 218.878Z" fill="#02A626"/>
<path d="M196 308.463C188.2 322.167 181 335.052 172.3 350.495C119.7 320.019 67.1 286.578 0 309.077C44.5 245.774 127.2 255.796 196 308.463Z" fill="#ABABB1"/>
<path d="M628.7 349.881C620.3 335.973 612.3 322.781 604.4 309.486C666.2 256.308 754.1 246.695 791.9 298.851C764.8 301.919 735 301.203 708 309.589C680.5 318.179 655.7 335.769 628.7 349.881Z" fill="#ABABB1"/>
<path d="M144.9 249.251C127.2 249.557 102.4 227.468 102.4 211.412C102.4 196.277 125.7 170.915 140 170.403C159.2 169.688 182 192.084 181.4 211.208C181 230.638 163.5 248.944 144.9 249.251Z" fill="#ABABB1"/>
<path d="M694.9 211.515C694.7 231.968 678.1 249.763 659.3 249.763C642.7 249.763 618.4 226.65 619.1 211.617C620 193.005 640.4 170.915 657 170.711C676.7 170.302 695.1 190.244 694.9 211.515Z" fill="#ABABB1"/>
<path d="M838.8 71.4097H917.7C941.7 71.4097 958.8 80 969 97.1807C971.8 101.885 973.8 107.714 974.9 114.566C976 121.418 976.6 131.031 976.6 143.303C976.6 158.95 975.5 170.915 973.3 179.198C971.1 187.584 967.5 194.334 962.4 199.549C953.2 208.446 941.8 212.844 928.3 212.844H893.8V331.984H838.8V71.4097ZM904.9 164.37C906.9 164.37 909.1 163.858 911.4 162.836C913.7 161.813 915.7 160.688 917.5 159.359C919.3 157.62 920.5 155.575 921.1 153.223C921.7 150.973 922.1 147.189 922.1 142.076C922.1 133.894 920.8 128.167 918.1 124.793C915.4 121.418 910.8 119.782 904.2 119.782H893.9V164.267H904.9V164.37Z" fill="#02A626"/>
<path d="M998.8 71.4097H1111.1V122.543H1053.8V163.142H1108.8V212.332H1053.8V280.646H1113.4V331.779H998.8V71.4097Z" fill="#02A626"/>
<path d="M1132.8 139.724C1132.8 115.999 1138.7 98.102 1150.4 85.8301C1162.1 73.5581 1179.3 67.5244 1202 67.5244C1248.3 67.5244 1271.5 91.6592 1271.5 139.724V273.693C1271.5 292.715 1265.3 307.85 1252.8 318.997C1240.3 330.144 1223.3 335.769 1201.6 335.769C1180.2 335.769 1163.4 329.939 1151.2 318.179C1139 306.418 1132.9 290.465 1132.9 270.114V139.724H1132.8ZM1216.9 144.02C1216.9 132.566 1215.9 124.896 1213.8 120.805C1211.8 116.817 1208.1 114.771 1202.7 114.771C1196.8 114.771 1192.8 116.919 1190.7 121.214C1188.5 125.509 1187.5 133.077 1187.5 144.02V252.319C1187.5 259.069 1187.6 263.978 1187.9 266.944C1188.2 269.909 1188.8 272.568 1189.8 274.92C1192.1 281.363 1196.4 284.636 1202.8 284.636C1207.9 284.636 1211.6 282.386 1213.9 277.988C1215.2 275.636 1216 272.875 1216.4 269.602C1216.8 266.33 1217 260.194 1217 251.092V144.02H1216.9Z" fill="#02A626"/>
<path d="M1299.7 71.4097H1378.6C1402.6 71.4097 1419.7 80 1429.9 97.1807C1432.7 101.885 1434.7 107.714 1435.8 114.566C1436.9 121.418 1437.5 131.031 1437.5 143.303C1437.5 158.95 1436.4 170.915 1434.2 179.198C1432 187.584 1428.4 194.334 1423.3 199.549C1414.1 208.446 1402.7 212.844 1389.2 212.844H1354.7V331.984H1299.7V71.4097V71.4097ZM1365.8 164.37C1367.8 164.37 1370 163.858 1372.3 162.836C1374.6 161.813 1376.6 160.688 1378.4 159.359C1380.2 157.62 1381.4 155.575 1382 153.223C1382.6 150.973 1383 147.189 1383 142.076C1383 133.894 1381.7 128.167 1379 124.793C1376.3 121.418 1371.7 119.782 1365.1 119.782H1354.8V164.267H1365.8V164.37Z" fill="#02A626"/>
<path d="M1459.7 71.4097H1514.3V280.749H1570.4V331.882H1459.7V71.4097V71.4097Z" fill="#02A626"/>
<path d="M1590.7 71.4097H1703V122.543H1645.7V163.142H1700.7V212.332H1645.7V280.646H1705.3V331.779H1590.7V71.4097Z" fill="#02A626"/>
<path d="M1842 71.4097H1897V331.882H1842V71.4097Z" fill="#02A626"/>
<path d="M1927.5 71.4097H2014.2L2026.8 149.95C2027.6 154.859 2028.3 160.381 2029.1 166.313C2029.9 172.346 2030.6 178.482 2031.4 184.823C2032.2 191.163 2032.9 197.504 2033.7 203.742C2034.5 209.98 2035.1 216.014 2035.6 221.741C2037.1 206.912 2038.7 193.311 2040.2 180.937C2041.7 168.563 2043.1 158.131 2044.4 149.541L2057 72.2278L2144.1 71.4097V331.882H2089.5V215.094C2089.5 210.901 2089.5 207.424 2089.5 204.56C2089.5 201.697 2089.6 198.22 2089.9 194.231C2090.2 190.243 2090.4 184.925 2090.7 178.38C2091 171.835 2091.5 162.938 2092.2 151.484L2093.3 132.36L2060.2 331.882H2011.1L1978.7 133.485L1979.5 150.666L1981 185.846C1981.8 199.14 1982.1 209.264 1982.1 216.321V331.882H1927.5V71.4097V71.4097Z" fill="#02A626"/>
<path d="M2174.6 71.4097H2253.5C2277.5 71.4097 2294.6 80 2304.8 97.1807C2307.6 101.885 2309.6 107.714 2310.7 114.566C2311.8 121.418 2312.4 131.031 2312.4 143.303C2312.4 158.95 2311.3 170.915 2309.1 179.198C2306.9 187.584 2303.3 194.334 2298.2 199.549C2289 208.446 2277.6 212.844 2264.1 212.844H2229.6V331.984H2174.6V71.4097ZM2240.6 164.37C2242.6 164.37 2244.8 163.858 2247.1 162.836C2249.4 161.813 2251.4 160.688 2253.2 159.359C2255 157.62 2256.2 155.575 2256.8 153.223C2257.4 150.973 2257.8 147.189 2257.8 142.076C2257.8 133.894 2256.5 128.167 2253.8 124.793C2251.1 121.418 2246.5 119.782 2239.9 119.782H2229.6V164.267H2240.6V164.37Z" fill="#02A626"/>
<path d="M2352.5 71.4097H2425.8L2461.3 331.882H2407.1L2404 294.759H2374.6L2369.6 331.882H2316.6L2352.5 71.4097ZM2389.2 111.293L2387.7 134.303C2387.2 140.337 2386.7 146.473 2386.4 152.814C2386 159.154 2385.6 166.108 2385.1 173.676L2381.3 218.98L2379 245.569H2399.2L2397.3 219.389C2395.8 198.527 2394.6 183.596 2393.9 174.494L2390.8 134.303L2389.2 111.293Z" fill="#02A626"/>
<path d="M2476.2 144.019C2476.2 127.656 2477.6 114.975 2480.4 105.976C2483.2 96.9763 2488.3 89.5109 2495.7 83.4772C2508.4 72.8415 2525.9 67.4214 2548 67.4214C2592.5 67.4214 2614.8 90.6358 2614.8 136.962V170.608H2559.8V144.019C2559.8 133.076 2558.8 125.713 2556.9 121.725C2555 117.839 2551.2 115.896 2545.6 115.896C2540 115.896 2535.9 118.248 2533.4 122.952C2532.1 124.997 2531.4 127.349 2531.1 130.008C2530.8 132.565 2530.7 137.269 2530.7 144.019V252.932C2530.7 261.011 2530.8 266.636 2531.1 269.908C2531.4 273.181 2532.1 275.942 2533.4 278.294C2535.4 283.203 2539.4 285.76 2545.2 285.76C2548 285.76 2550.5 285.044 2552.6 283.612C2554.8 282.18 2556.4 280.135 2557.4 277.578C2558.4 275.533 2559.1 272.67 2559.3 269.193C2559.6 265.715 2559.7 260.295 2559.7 253.035V218.264H2614.7V265.511C2614.7 288.419 2608.8 305.906 2596.9 317.871C2585.1 329.836 2567.9 335.87 2545.5 335.87C2517.7 335.87 2498.3 327.177 2487.1 309.69C2484.8 306.315 2483 302.94 2481.6 299.566C2480.2 296.191 2479.1 292.305 2478.4 288.01C2477.7 283.714 2477.1 278.806 2476.7 273.181C2476.3 267.556 2476.1 260.909 2476.1 253.035V144.019H2476.2Z" fill="#02A626"/>
<path d="M2656.8 123.77H2625.5V71.4097H2744.3V123.77H2711.8V331.882H2656.8V123.77Z" fill="#02A626"/>
</g>
<defs>
<clipPath id="clip0">
<rect width="2745" height="386.9" fill="white"/>
</clipPath>
</defs>
</svg>
