<svg width="1466" height="387" viewBox="0 0 1466 387" fill="none" xmlns="http://www.w3.org/2000/svg">
<path d="M225.1 386.8C220.3 386.8 215.6 386.8 210.8 386.8C209.9 386.1 209 385.1 208 384.8C197.5 382.1 186.9 379.6 176.4 376.8C172.3 375.7 168.2 372.8 164.4 373.2C156.2 374.1 148.2 376.3 140.2 378.6C119.5 384.6 118.8 384.6 106.9 367.3C104.2 363.4 102.3 361.8 97.2 364.1C87.9 368.2 81.5 365.2 76.2 356.2C73 350.7 69.6 345 65.2 340.6C57 332.3 56.4 329.4 64.2 320.8C65.2 319.6 66.6 318.8 66.4 319C66.7 311.9 67 306.3 67.2 300.7C67.4 293.6 68.8 286.3 67.3 279.6C66.1 273.9 67 270.9 71.3 267.5C79.7 260.8 79.7 256.8 71.8 249.2C69.8 247.3 67.6 245.6 64.9 243.4C62.9 246.2 61.7 249.3 59.5 250.5C55.5 252.8 50.7 255.4 46.4 255C43.9 254.8 40.4 249.2 40 245.7C39.3 239.5 40.8 233.1 41.1 226.8C41.2 224.9 40.4 222.9 40 221C39.3 220.9 38.6 220.8 37.9 220.7C36.2 223.4 34.5 226.1 32.8 228.8C29.3 234.4 26.2 240.4 22.1 245.5C17.5 251.1 6.9 251.2 0 245.7C12 240.9 13.1 229.5 17.5 219.8C14.9 219 12.8 218.4 10 217.6C15.1 211.8 24.7 208.8 19.2 197.8C25 194.7 30.7 191 37 188.5C51 183.1 61.9 190.3 60.5 204.9C59.6 214.1 55.4 222.9 52.9 232C51.7 236.1 51 240.4 50.1 244.6C51.1 245 52.1 245.3 53.2 245.7C55.5 242 58.3 238.5 60.1 234.6C64.9 224.3 69.9 214 73.8 203.4C76.7 195.6 82.4 188 78.5 179.3C74.9 180.4 71.7 181.3 68.5 182.2C68.5 178.7 68.5 175.2 68.5 171.4C65.5 171.4 63.2 171.4 60.5 171.4C60.3 168.5 59.8 165.9 60.1 163.4C60.9 158 58.8 156.7 53.7 157.2C51.2 157.5 48.4 156.1 43.9 155C51 150.2 49.6 146 47.6 141.3C42 127.8 38.5 113.9 46.3 100C48.6 95.8 52 92.2 54.7 88.1C58.9 81.7 64.1 77 72.5 77.5C75.3 77.6 78.3 77.5 80.8 76.5C88 73.6 98.6 75.4 104.1 81C106.2 83.2 108.3 85.4 110.5 87.8C109 89.1 107.7 90.3 105.2 92.4C110.8 96.3 115.6 100.1 120.8 103.1C126.5 106.3 130.8 110.2 129 117C128.3 119.6 123.8 120.9 122.6 123.6C119.8 129.5 116.7 127.2 112.9 125.2C109.2 123.2 105.2 121.5 101.4 119.7C100.9 120.5 100.4 121.2 100 122C101.7 123.5 103.4 125.1 105.2 126.6C114.1 134.2 123.8 141.1 131.8 149.6C137.2 155.3 141.9 156.6 148.9 154.6C157.4 152.1 166.1 150.3 175.6 148C178.8 143 181.7 135.6 191 134.7C192.7 134.5 195.5 132.6 195.7 131.3C196.6 124.7 200.3 123.3 206.2 123.8C210.5 124.1 215.2 117.2 212.5 115.2C208.2 111.9 210.7 109.2 211.2 106C212.4 98.7 213.6 91.5 214.4 84.2C214.6 82.1 213.6 79.8 213 76.7C208.4 79.1 203.7 80.1 201.3 83C191.7 94.6 182.5 106.3 168 112.4C160.8 115.4 153.8 118.8 145.7 122.5C145.7 120.5 145.4 118.3 145.7 116.2C148.6 98.9 150.6 81.4 154.8 64.4C157.2 54.5 154.2 43.1 162.4 34.6C163.1 33.9 161.2 30.7 160.1 27.1C167.8 21.7 175.9 15 184.9 10.2C190.1 7.4 197.1 7.2 202.3 11.9C205.7 15 205.7 25.8 203.2 30.8C202.2 32.9 202.3 35.6 201.8 38.1C205.6 37.9 210 38.9 212.9 37.2C216.4 35.2 218.6 31 221.2 27.6C224.8 23.1 223.3 20.3 218.1 18.8C216.5 18.4 214.9 18 213.2 17.9C208.1 17.6 206.5 13.5 208.8 10.6C212.6 5.8 217.9 0 222.3 0C230.9 0 239.5 3.7 248.1 6C247.1 9.3 245.4 12.2 245.5 15C245.7 22.6 246.6 30.1 247.4 38.7C249.1 38.2 252.6 38.2 254.2 36.4C255.3 35.2 254 31.6 253.5 29.1C252.5 23.1 250.1 16.7 255.2 11.6C260.3 6.5 266.6 7.1 272.3 10.5C279.5 14.9 286.5 19.8 293.4 24.7C294.5 25.5 295.8 28.2 295.5 28.6C291.5 33.1 296.1 36.1 297.5 39.3C299 42.6 301.7 45.3 303.1 47.2C301.6 50.7 299.5 53.1 299.7 55.2C301 65.3 302.7 75.3 304.6 85.2C306.9 96.9 309.7 108.5 312.7 122.2C300.5 116.6 289 113.2 279.7 106.5C270 99.5 262.5 89.4 252.7 79.2C253.4 83.7 253.1 87.2 254.6 89.8C258.9 97.6 263.9 105.1 268.7 112.6C271.5 116.9 274.5 121 278.7 127C268.9 128.1 261.3 128.9 253.3 129.8C261.5 136.3 268.9 142.2 276.4 148C276.9 148.4 277.8 148.2 278.4 148.4C287.1 150.4 295.7 152.5 304.4 154.2C307.2 154.8 311.1 155.3 313 153.9C318.8 149.5 323.6 143.9 329.1 139.2C334.4 134.6 340.1 130.4 345.5 126C347.3 124.5 349 122.9 350.8 121.4C350.3 120.7 349.9 120 349.4 119.3C346.1 121.1 342.6 122.7 339.4 124.6C335.4 127 331.6 129.7 328.5 123.4C328.1 122.5 326.7 121.6 325.7 121.6C321 121.5 320.5 117.9 321.5 115.2C322.9 111.4 325 107.5 327.9 104.9C333.2 100.1 339.2 96.3 345.4 91.8C342.3 89.6 340.8 88.5 339.3 87.5C343.4 84.2 346.7 80.8 350.7 78.5C356.8 75 363.1 69.8 370.5 76.4C371.4 77.2 373.3 77.2 374.6 76.9C383.5 75 389.9 77.4 394.7 85.7C397.2 90.1 402.7 92.8 404.9 97.2C411.7 111.5 410.2 126.1 403.3 140C400.6 145.5 399.2 149.9 406.5 155.7C400.4 155.7 396.8 155.7 392 155.7C392 158.5 391.9 161 392 163.6C392.2 167.9 392.5 171.6 386.2 171.6C382.6 171.6 379.1 173.4 381.1 178.6C381.4 179.4 380.2 180.8 379.6 182.1C376.9 180 374.7 178.3 372 176.2C369.9 189.8 390.3 237.9 400.9 244.3C400.4 241.3 400.4 239.2 399.8 237.2C396.9 228.7 393 220.5 390.9 211.9C389.3 205.2 387.3 197.3 393.3 191.7C399.9 185.5 408.3 186.2 416.1 189.3C421.7 191.5 426.8 195 432.2 197.9C425 209 438.7 210.4 440.2 217.6C438.6 219 436.9 220.5 435.2 222C436.8 226.3 437.8 230.5 439.9 234.2C441.4 236.9 444.1 238.9 446.4 241.1C448 242.6 449.9 243.8 451.7 245.2C449.4 247 447 250.4 444.7 250.3C438.5 250.1 431.7 250.3 427.6 243.7C423.8 237.6 419.7 231.6 415.6 225.5C414.6 223.9 413.3 222.5 410.9 219.5C411.4 229 412.6 236.2 412 243.3C411.7 247.2 409.1 252.8 406.1 254C402.5 255.4 396.9 253.9 393 251.9C389.5 250.1 387.3 245.9 384.5 242.8C373 251.7 372.3 257.5 380.6 268.7C382.3 271.1 382.7 274.7 382.9 277.9C383.2 284.2 382.8 290.6 383 297C383.2 303.8 383.6 310.7 383.9 317.5C382.5 318.1 383 318.6 383.6 319C393.5 324.8 394.1 334.2 386 341.8C380.9 346.6 376.5 352.3 372.9 358.3C369.2 364.5 364.4 367.1 358.2 364.4C350.3 360.8 345.7 363.4 342.3 370.5C341.7 371.8 340.9 373 340.1 374.1C334 383.1 326.9 384.4 316.8 380.7C307.5 377.3 297.7 375.4 288.1 373.1C286.7 372.8 284.9 373.5 283.3 374.1C267.3 379.7 251.4 385.5 233.9 384.6C231.2 384.3 228.1 385.9 225.1 386.8ZM367.8 310.6C368.5 310.1 369.2 309.6 369.9 309.1C370.9 299.2 368.7 289.6 363.8 281.3C356.9 269.8 348.5 259.1 340.8 248.1C337.5 243.4 333.7 244.2 329.9 247.2C325 251.1 324.6 256.1 325.8 262C328.8 277.3 324.5 281 309.7 277.4C304.3 276.1 298.4 277 292.7 277.3C291.4 277.4 290.1 279.2 288.9 280.2C289.1 280.9 289.3 281.5 289.5 282.2C293.3 282.2 297.1 282 300.9 282.3C306.6 282.8 312.2 282.3 316.8 287.6C320.4 291.8 325.8 292.9 329.2 288.6C334.7 289.4 339.6 289.2 343.6 291C350.8 294.4 361.5 293.4 362.9 305.2C363.3 307.2 366.2 308.8 367.8 310.6ZM156.3 280.8C156.3 280.1 156.3 279.5 156.2 278.8C149.8 276.7 143.3 277 136.9 279.7C129.6 282.7 125.4 280.3 125.1 272.4C125 269.1 126 265.8 125.8 262.5C125.6 258.1 125.4 253.5 124 249.4C122 244 115.2 243.7 111.6 248.3C109.6 250.9 107.1 253.2 105.2 255.8C99.4 263.8 92.6 271.4 88.2 280.1C84.7 287.1 80.5 295 83.7 305.3C90.9 294.7 101.1 292.6 111.3 290.9C115.1 290.3 119.3 289 122.7 290C130.3 292.1 134.3 290.9 137.5 283.9C143.8 282.9 150.1 281.8 156.3 280.8ZM158.7 228.7C153.5 233 147.2 236.1 146.6 244.4C146.4 248.1 145.1 251.8 143.7 255.3C141.4 261.2 143.5 264.9 149.2 265.8C155.7 266.8 162.3 266.7 169.5 267C165.8 254.1 162.4 242 158.7 228.7ZM282.8 264.8C289.9 264.8 296.5 264.7 303.1 264.8C309.7 264.9 309.9 261.1 308.3 256.3C306.8 251.6 303.6 246.9 303.7 242.3C303.8 234.2 299.1 231.9 293 229.9C289.6 241.7 286.2 253.2 282.8 264.8ZM129.7 208.4C135.8 211.7 141.1 214.9 146.7 217.4C148.1 218 151.6 217 152.1 215.8C154 211.8 156 207.4 156 203.1C156.1 200 153.8 194.9 151.5 194.1C146.5 192.3 140.7 192.7 135.2 192.3C135 192.3 134.6 193 134.5 193.5C132.7 198.7 131.1 204 129.7 208.4ZM316.4 191.3C309.8 191.1 301.9 189.7 297.8 196.3C292.9 204.1 298.9 211.1 301.4 217.4C308.8 214.9 315.7 212.5 322.5 210.2C320.6 204.3 318.7 198.3 316.4 191.3ZM158.5 180C159.4 174.8 160.1 171.1 161.1 165.4C155.1 167.9 151 169.7 145.7 171.9C150.2 174.8 153.5 176.8 158.5 180ZM293.9 178.3C297.9 176 300.6 174.4 304.2 172.3C300.1 169.9 297.5 168.4 293.9 166.2C293.9 170.4 293.9 173.3 293.9 178.3Z" fill="#037F37"/>
<path d="M493.428 116.488V131.272H523.092V145.96H493.428V169H474.42V101.8H527.124V116.488H493.428ZM589.966 154.312V169H536.014V101.8H588.718V116.488H554.83V127.816H584.686V142.024H554.83V154.312H589.966ZM600.514 101.8H632.29C639.65 101.8 646.178 103.176 651.874 105.928C657.57 108.68 661.986 112.584 665.122 117.64C668.258 122.696 669.826 128.616 669.826 135.4C669.826 142.184 668.258 148.104 665.122 153.16C661.986 158.216 657.57 162.12 651.874 164.872C646.178 167.624 639.65 169 632.29 169H600.514V101.8ZM631.522 153.832C637.282 153.832 641.89 152.2 645.346 148.936C648.866 145.672 650.626 141.16 650.626 135.4C650.626 129.64 648.866 125.128 645.346 121.864C641.89 118.6 637.282 116.968 631.522 116.968H619.522V153.832H631.522ZM733.778 154.312V169H679.826V101.8H732.53V116.488H698.642V127.816H728.498V142.024H698.642V154.312H733.778ZM773.702 151.144H763.334V169H744.326V101.8H775.046C781.126 101.8 786.406 102.824 790.886 104.872C795.366 106.856 798.822 109.736 801.254 113.512C803.686 117.224 804.902 121.608 804.902 126.664C804.902 131.528 803.75 135.784 801.446 139.432C799.206 143.016 795.974 145.832 791.75 147.88L806.246 169H785.894L773.702 151.144ZM785.702 126.664C785.702 123.528 784.71 121.096 782.726 119.368C780.742 117.64 777.798 116.776 773.894 116.776H763.334V136.456H773.894C777.798 136.456 780.742 135.624 782.726 133.96C784.71 132.232 785.702 129.8 785.702 126.664ZM860.413 155.944H831.997L826.717 169H807.325L836.989 101.8H855.709L885.469 169H865.693L860.413 155.944ZM854.845 141.928L846.205 120.424L837.565 141.928H854.845ZM890.857 101.8H909.865V153.928H941.929V169H890.857V101.8ZM1038.06 169L1037.87 133.384L1020.59 162.376H1012.14L994.957 134.344V169H977.389V101.8H993.037L1016.65 140.584L1039.69 101.8H1055.34L1055.53 169H1038.06ZM1068.98 101.8H1087.99V169H1068.98V101.8ZM1165.45 101.8V169H1149.8L1120.14 133.192V169H1101.51V101.8H1117.16L1146.83 137.608V101.8H1165.45ZM1178.86 101.8H1197.87V169H1178.86V101.8ZM1235 170.344C1229.56 170.344 1224.28 169.672 1219.16 168.328C1214.04 166.984 1209.88 165.192 1206.68 162.952L1212.92 148.936C1215.93 150.92 1219.42 152.52 1223.39 153.736C1227.36 154.952 1231.26 155.56 1235.1 155.56C1242.4 155.56 1246.04 153.736 1246.04 150.088C1246.04 148.168 1244.99 146.76 1242.88 145.864C1240.83 144.904 1237.5 143.912 1232.89 142.888C1227.84 141.8 1223.61 140.648 1220.22 139.432C1216.83 138.152 1213.92 136.136 1211.48 133.384C1209.05 130.632 1207.84 126.92 1207.84 122.248C1207.84 118.152 1208.96 114.472 1211.2 111.208C1213.44 107.88 1216.76 105.256 1221.18 103.336C1225.66 101.416 1231.13 100.456 1237.6 100.456C1242.01 100.456 1246.36 100.968 1250.65 101.992C1254.94 102.952 1258.72 104.392 1261.98 106.312L1256.12 120.424C1249.72 116.968 1243.52 115.24 1237.5 115.24C1233.72 115.24 1230.97 115.816 1229.24 116.968C1227.52 118.056 1226.65 119.496 1226.65 121.288C1226.65 123.08 1227.68 124.424 1229.72 125.32C1231.77 126.216 1235.07 127.144 1239.61 128.104C1244.73 129.192 1248.96 130.376 1252.28 131.656C1255.68 132.872 1258.59 134.856 1261.02 137.608C1263.52 140.296 1264.76 143.976 1264.76 148.648C1264.76 152.68 1263.64 156.328 1261.4 159.592C1259.16 162.856 1255.8 165.48 1251.32 167.464C1246.84 169.384 1241.4 170.344 1235 170.344ZM1286.91 116.872H1266.27V101.8H1326.46V116.872H1305.92V169H1286.91V116.872ZM1362.92 151.144H1352.55V169H1333.54V101.8H1364.26C1370.34 101.8 1375.62 102.824 1380.1 104.872C1384.58 106.856 1388.04 109.736 1390.47 113.512C1392.9 117.224 1394.12 121.608 1394.12 126.664C1394.12 131.528 1392.97 135.784 1390.66 139.432C1388.42 143.016 1385.19 145.832 1380.97 147.88L1395.46 169H1375.11L1362.92 151.144ZM1374.92 126.664C1374.92 123.528 1373.93 121.096 1371.94 119.368C1369.96 117.64 1367.02 116.776 1363.11 116.776H1352.55V136.456H1363.11C1367.02 136.456 1369.96 135.624 1371.94 133.96C1373.93 132.232 1374.92 129.8 1374.92 126.664ZM1439.67 144.904V169H1420.66V144.616L1395.03 101.8H1415.09L1431.03 128.488L1446.97 101.8H1465.4L1439.67 144.904ZM675.933 287.344C668.829 287.344 662.429 285.84 656.733 282.832C651.101 279.824 646.653 275.664 643.389 270.352C640.189 265.04 638.589 259.056 638.589 252.4C638.589 245.744 640.189 239.76 643.389 234.448C646.653 229.136 651.101 224.976 656.733 221.968C662.429 218.96 668.829 217.456 675.933 217.456C683.037 217.456 689.405 218.96 695.037 221.968C700.733 224.976 705.181 229.136 708.381 234.448C711.645 239.76 713.277 245.744 713.277 252.4C713.277 259.056 711.645 265.04 708.381 270.352C705.181 275.664 700.733 279.824 695.037 282.832C689.405 285.84 683.037 287.344 675.933 287.344ZM675.933 271.6C679.325 271.6 682.397 270.8 685.149 269.2C687.901 267.6 690.077 265.36 691.677 262.48C693.277 259.536 694.077 256.176 694.077 252.4C694.077 248.624 693.277 245.296 691.677 242.416C690.077 239.472 687.901 237.2 685.149 235.6C682.397 234 679.325 233.2 675.933 233.2C672.541 233.2 669.469 234 666.717 235.6C663.965 237.2 661.789 239.472 660.189 242.416C658.589 245.296 657.789 248.624 657.789 252.4C657.789 256.176 658.589 259.536 660.189 262.48C661.789 265.36 663.965 267.6 666.717 269.2C669.469 270.8 672.541 271.6 675.933 271.6ZM742.24 233.488V248.272H771.904V262.96H742.24V286H723.232V218.8H775.936V233.488H742.24ZM827.452 287.344C822.524 287.344 818.044 286.512 814.012 284.848C809.98 283.12 806.684 280.656 804.124 277.456L814.492 265.168C818.076 269.84 821.948 272.176 826.108 272.176C828.86 272.176 830.94 271.344 832.348 269.68C833.82 268.016 834.556 265.584 834.556 262.384V233.488H811.324V218.8H853.372V261.232C853.372 269.936 851.164 276.464 846.748 280.816C842.396 285.168 835.964 287.344 827.452 287.344ZM897.209 287.344C887.225 287.344 879.449 284.624 873.881 279.184C868.377 273.744 865.625 266.032 865.625 256.048V218.8H884.633V255.472C884.633 266.224 888.889 271.6 897.401 271.6C905.849 271.6 910.073 266.224 910.073 255.472V218.8H928.793V256.048C928.793 266.032 926.009 273.744 920.441 279.184C914.937 284.624 907.193 287.344 897.209 287.344ZM965.286 287.344C959.846 287.344 954.566 286.672 949.446 285.328C944.326 283.984 940.166 282.192 936.966 279.952L943.206 265.936C946.214 267.92 949.702 269.52 953.67 270.736C957.638 271.952 961.542 272.56 965.382 272.56C972.678 272.56 976.326 270.736 976.326 267.088C976.326 265.168 975.27 263.76 973.158 262.864C971.11 261.904 967.782 260.912 963.174 259.888C958.118 258.8 953.894 257.648 950.502 256.432C947.11 255.152 944.198 253.136 941.766 250.384C939.334 247.632 938.118 243.92 938.118 239.248C938.118 235.152 939.238 231.472 941.478 228.208C943.718 224.88 947.046 222.256 951.462 220.336C955.942 218.416 961.414 217.456 967.878 217.456C972.294 217.456 976.646 217.968 980.934 218.992C985.222 219.952 988.998 221.392 992.262 223.312L986.406 237.424C980.006 233.968 973.798 232.24 967.782 232.24C964.006 232.24 961.254 232.816 959.526 233.968C957.798 235.056 956.934 236.496 956.934 238.288C956.934 240.08 957.958 241.424 960.006 242.32C962.054 243.216 965.35 244.144 969.894 245.104C975.014 246.192 979.238 247.376 982.566 248.656C985.958 249.872 988.87 251.856 991.302 254.608C993.798 257.296 995.046 260.976 995.046 265.648C995.046 269.68 993.926 273.328 991.686 276.592C989.446 279.856 986.086 282.48 981.606 284.464C977.126 286.384 971.686 287.344 965.286 287.344ZM1017.19 233.872H996.553V218.8H1056.74V233.872H1036.2V286H1017.19V233.872ZM1063.83 218.8H1082.83V286H1063.83V218.8ZM1129.86 287.344C1122.82 287.344 1116.49 285.872 1110.85 282.928C1105.29 279.92 1100.9 275.76 1097.7 270.448C1094.5 265.136 1092.9 259.12 1092.9 252.4C1092.9 245.68 1094.5 239.664 1097.7 234.352C1100.9 229.04 1105.29 224.912 1110.85 221.968C1116.49 218.96 1122.82 217.456 1129.86 217.456C1136.01 217.456 1141.54 218.544 1146.47 220.72C1151.4 222.896 1155.49 226.032 1158.76 230.128L1146.66 241.072C1142.31 235.824 1137.03 233.2 1130.82 233.2C1127.17 233.2 1123.91 234 1121.03 235.6C1118.21 237.2 1116.01 239.472 1114.41 242.416C1112.87 245.296 1112.1 248.624 1112.1 252.4C1112.1 256.176 1112.87 259.536 1114.41 262.48C1116.01 265.36 1118.21 267.6 1121.03 269.2C1123.91 270.8 1127.17 271.6 1130.82 271.6C1137.03 271.6 1142.31 268.976 1146.66 263.728L1158.76 274.672C1155.49 278.768 1151.4 281.904 1146.47 284.08C1141.54 286.256 1136.01 287.344 1129.86 287.344ZM1221.18 271.312V286H1167.23V218.8H1219.94V233.488H1186.05V244.816H1215.9V259.024H1186.05V271.312H1221.18Z" fill="#037F37"/>
</svg>
