<svg width="1722" height="385" viewBox="0 0 1722 385" fill="none" xmlns="http://www.w3.org/2000/svg">
<path d="M291.864 122.1C318.664 175.2 316.964 227.2 292.364 278.5C344.664 305.7 402.564 290.2 419.364 242.9C393.364 242.9 368.264 242.9 341.464 242.9C341.464 222.7 341.464 205.4 341.464 184.5C388.064 184.5 434.464 184.2 480.864 185.2C483.964 185.3 489.464 195.7 489.464 201.3C489.464 323.2 379.664 392.3 268.964 339.5C253.064 332 229.836 308.6 219 331C159.836 341.6 84.4 343.3 39 287C-7 230 -6.49998 168.7 39 111.6C84.4 54.5001 153.1 36.6 219 70C235.4 78.3 251.264 67.7001 267.364 59.8001C337.964 24.9001 425.764 48.0001 465.564 111.6C450.464 120.5 435.864 130.5 419.964 137.6C415.164 139.7 405.564 135.2 400.164 131C368.064 106.4 329.264 102.3 291.864 122.1ZM261 199.6C260.9 147.2 206.764 94.6 155.464 95C103.864 95.5 38.4 147.4 39 199.6C39.5 251.9 101.7 304.1 153 304C204.1 303.8 261.1 252.4 261 199.6Z" fill="black"/>
<path d="M674.564 77.5C688.964 77.5 701.364 82.7 711.664 93.1C721.964 103.5 727.164 116.2 727.164 131.2C727.164 146.1 722.064 158.6 711.864 168.9C701.664 179.2 689.264 184.3 674.664 184.3C659.364 184.3 646.664 179 636.564 168.5C626.464 157.9 621.364 145.4 621.364 130.9C621.364 121.2 623.764 112.2 628.464 104.1C633.164 95.9 639.664 89.5 647.864 84.7C656.164 79.9 665.064 77.5 674.564 77.5ZM674.364 96.5C664.964 96.5 657.064 99.8 650.564 106.3C644.164 112.9 640.964 121.2 640.964 131.3C640.964 142.6 644.964 151.5 653.064 158C659.364 163.1 666.564 165.7 674.664 165.7C683.864 165.7 691.664 162.4 698.164 155.7C704.664 149.1 707.864 140.9 707.864 131.1C707.864 121.4 704.564 113.2 698.064 106.5C691.564 99.8 683.664 96.5 674.364 96.5Z" fill="#FE0101"/>
<path d="M738.964 80.1001H760.764L782.164 112.8L803.564 80.1001H825.364L793.064 129.5L827.364 181.9H805.564L782.164 146.1L758.664 181.9H736.764L771.164 129.4L738.964 80.1001Z" fill="#FE0101"/>
<path d="M842.164 80.1001H892.664V99.0001H861.364V117.5H892.664V136.1H861.364V181.9H842.164V80.1001Z" fill="#FE0101"/>
<path d="M957.964 77.5C972.364 77.5 984.764 82.7 995.064 93.1C1005.36 103.5 1010.56 116.2 1010.56 131.2C1010.56 146.1 1005.46 158.6 995.264 168.9C985.064 179.2 972.664 184.3 958.064 184.3C942.764 184.3 930.064 179 919.964 168.5C909.864 157.9 904.764 145.4 904.764 130.9C904.764 121.2 907.164 112.2 911.864 104.1C916.564 95.9 923.064 89.5 931.264 84.7C939.564 79.9 948.464 77.5 957.964 77.5ZM957.764 96.5C948.364 96.5 940.464 99.8 933.964 106.3C927.564 112.9 924.364 121.2 924.364 131.3C924.364 142.6 928.364 151.5 936.464 158C942.764 163.1 949.964 165.7 958.064 165.7C967.264 165.7 975.064 162.4 981.564 155.7C988.064 149.1 991.264 140.9 991.264 131.1C991.264 121.4 987.964 113.2 981.464 106.5C975.064 99.8 967.164 96.5 957.764 96.5Z" fill="#FE0101"/>
<path d="M1030.26 80.1001H1050.76C1061.96 80.1001 1069.96 81.1001 1074.76 83.1001C1079.56 85.1001 1083.36 88.4001 1086.26 93.1001C1089.16 97.8001 1090.66 103.3 1090.66 109.6C1090.66 116.3 1089.06 121.9 1085.86 126.4C1082.66 130.9 1077.86 134.3 1071.36 136.6L1095.46 181.9H1074.26L1051.36 138.8H1049.56V181.9H1030.16V80.1001H1030.26ZM1049.66 119.9H1055.76C1061.96 119.9 1066.16 119.1 1068.46 117.5C1070.76 115.9 1071.96 113.2 1071.96 109.4C1071.96 107.2 1071.36 105.2 1070.26 103.6C1069.06 102 1067.56 100.8 1065.66 100.1C1063.76 99.4001 1060.16 99.0001 1055.06 99.0001H1049.76V119.9H1049.66Z" fill="#FE0101"/>
<path d="M1111.26 80.1001H1134.26C1149.06 80.1001 1160.06 81.9001 1167.26 85.6001C1174.46 89.3001 1180.36 95.2001 1185.06 103.5C1189.76 111.8 1192.06 121.4 1192.06 132.4C1192.06 140.2 1190.76 147.4 1188.16 154C1185.56 160.6 1181.96 166 1177.36 170.4C1172.76 174.7 1167.76 177.7 1162.46 179.4C1157.16 181.1 1147.86 181.9 1134.66 181.9H1111.36V80.1001H1111.26ZM1130.46 98.8001V163H1139.46C1148.36 163 1154.76 162 1158.76 160C1162.76 158 1166.06 154.6 1168.56 149.7C1171.06 144.9 1172.36 139 1172.36 132C1172.36 121.2 1169.36 112.8 1163.26 106.9C1157.86 101.5 1149.06 98.9001 1137.06 98.9001H1130.46V98.8001Z" fill="#FE0101"/>
<path d="M1344.06 96.7L1330.46 110.2C1321.86 101.1 1311.76 96.5 1300.26 96.5C1290.26 96.5 1281.86 99.8 1275.06 106.5C1268.26 113.1 1264.96 121.2 1264.96 130.7C1264.96 140.5 1268.46 148.9 1275.46 155.7C1282.46 162.5 1291.16 165.9 1301.46 165.9C1308.16 165.9 1313.76 164.5 1318.36 161.7C1322.96 158.9 1326.66 154.5 1329.46 148.5H1299.96V130.3H1351.16L1351.26 134.6C1351.26 143.5 1348.96 151.9 1344.36 159.9C1339.76 167.9 1333.76 174 1326.46 178.2C1319.16 182.4 1310.56 184.5 1300.66 184.5C1290.06 184.5 1280.66 182.2 1272.36 177.6C1264.06 173 1257.56 166.5 1252.66 158C1247.86 149.5 1245.46 140.4 1245.46 130.5C1245.46 117 1249.96 105.3 1258.86 95.3C1269.46 83.4 1283.16 77.5 1300.06 77.5C1308.96 77.5 1317.16 79.1 1324.86 82.4C1331.46 85.2 1337.76 90 1344.06 96.7Z" fill="black"/>
<path d="M1370.36 80.1001H1390.86C1402.06 80.1001 1410.06 81.1001 1414.86 83.1001C1419.66 85.1001 1423.46 88.4001 1426.36 93.1001C1429.26 97.8001 1430.76 103.3 1430.76 109.6C1430.76 116.3 1429.16 121.9 1425.96 126.4C1422.76 130.9 1417.96 134.3 1411.46 136.6L1435.56 181.9H1414.36L1391.46 138.8H1389.66V181.9H1370.26V80.1001H1370.36ZM1389.76 119.9H1395.86C1402.06 119.9 1406.26 119.1 1408.56 117.5C1410.86 115.9 1412.06 113.2 1412.06 109.4C1412.06 107.2 1411.46 105.2 1410.36 103.6C1409.16 102 1407.66 100.8 1405.76 100.1C1403.86 99.4001 1400.26 99.0001 1395.16 99.0001H1389.86V119.9H1389.76Z" fill="black"/>
<path d="M1499.36 77.5C1513.76 77.5 1526.16 82.7 1536.46 93.1C1546.76 103.5 1551.96 116.2 1551.96 131.2C1551.96 146.1 1546.86 158.6 1536.66 168.9C1526.46 179.2 1514.06 184.3 1499.46 184.3C1484.16 184.3 1471.46 179 1461.36 168.5C1451.26 157.9 1446.16 145.4 1446.16 130.9C1446.16 121.2 1448.56 112.2 1453.26 104.1C1457.96 95.9 1464.46 89.5 1472.66 84.7C1480.96 79.9 1489.86 77.5 1499.36 77.5ZM1499.16 96.5C1489.76 96.5 1481.86 99.8 1475.36 106.3C1468.96 112.9 1465.76 121.2 1465.76 131.3C1465.76 142.6 1469.76 151.5 1477.86 158C1484.16 163.1 1491.36 165.7 1499.46 165.7C1508.66 165.7 1516.46 162.4 1522.96 155.7C1529.46 149.1 1532.66 140.9 1532.66 131.1C1532.66 121.4 1529.36 113.2 1522.86 106.5C1516.36 99.8 1508.46 96.5 1499.16 96.5Z" fill="black"/>
<path d="M1569.56 80.1001H1588.96V145.9C1588.96 151.6 1589.46 155.6 1590.46 157.9C1591.46 160.3 1593.06 162.1 1595.36 163.5C1597.66 164.9 1600.36 165.6 1603.66 165.6C1607.06 165.6 1610.06 164.8 1612.46 163.2C1614.96 161.6 1616.66 159.6 1617.56 157.2C1618.46 154.8 1618.96 150.2 1618.96 143.3V80.1001H1638.36V140.8C1638.36 151 1637.76 158.1 1636.66 162.1C1635.46 166.1 1633.26 169.9 1630.06 173.6C1626.76 177.3 1623.06 180 1618.86 181.8C1614.66 183.6 1609.66 184.5 1604.06 184.5C1596.66 184.5 1590.26 182.8 1584.76 179.4C1579.26 176 1575.36 171.8 1573.06 166.7C1570.66 161.6 1569.56 153 1569.56 140.9V80.1001Z" fill="black"/>
<path d="M1660.96 80.1001H1681.56C1692.66 80.1001 1700.66 81.1001 1705.56 83.2001C1710.46 85.3001 1714.36 88.6001 1717.16 93.2001C1719.96 97.8001 1721.46 103.3 1721.46 109.7C1721.46 116.8 1719.56 122.7 1715.86 127.4C1712.16 132.1 1707.06 135.4 1700.76 137.2C1697.06 138.3 1690.26 138.8 1680.36 138.8V181.9H1660.96V80.1001ZM1680.26 119.9H1686.46C1691.26 119.9 1694.66 119.6 1696.56 118.9C1698.46 118.2 1699.96 117.1 1701.06 115.5C1702.16 113.9 1702.66 112 1702.66 109.7C1702.66 105.8 1701.16 102.9 1698.06 101.1C1695.86 99.8001 1691.76 99.1001 1685.76 99.1001H1680.26V119.9Z" fill="black"/>
<path d="M847.164 257.2H864.164L903.964 318.4V257.2H921.664V350.2H904.664L864.964 289.2V350.2H847.164V257.2Z" fill="black"/>
<path d="M967.564 257.2H985.164V350.2H967.564V257.2Z" fill="black"/>
<path d="M1116.76 272.4L1104.26 284.7C1096.36 276.4 1087.16 272.2 1076.66 272.2C1067.46 272.2 1059.86 275.2 1053.66 281.3C1047.46 287.4 1044.36 294.7 1044.36 303.4C1044.36 312.4 1047.56 320 1053.96 326.2C1060.36 332.4 1068.26 335.6 1077.66 335.6C1083.76 335.6 1088.96 334.3 1093.16 331.7C1097.36 329.1 1100.76 325.1 1103.36 319.6H1076.46V303H1123.26L1123.36 306.9C1123.36 315 1121.26 322.8 1117.06 330C1112.86 337.3 1107.36 342.9 1100.66 346.7C1093.96 350.5 1086.06 352.5 1077.06 352.5C1067.36 352.5 1058.76 350.4 1051.26 346.2C1043.66 342 1037.66 336 1033.26 328.3C1028.86 320.5 1026.66 312.2 1026.66 303.2C1026.66 290.9 1030.76 280.2 1038.86 271.1C1048.56 260.3 1061.06 254.8 1076.56 254.8C1084.66 254.8 1092.26 256.3 1099.26 259.3C1105.26 261.9 1111.06 266.2 1116.76 272.4Z" fill="black"/>
<path d="M1165.66 257.2H1216.46V274.5H1183.26V291.3H1216.46V308.3H1183.26V332.8H1216.46V350.2H1165.66V257.2Z" fill="black"/>
<path d="M1260.06 257.2H1278.86C1289.16 257.2 1296.46 258.1 1300.76 260C1305.06 261.9 1308.66 264.9 1311.26 269.1C1313.96 273.4 1315.26 278.4 1315.26 284.2C1315.26 290.3 1313.76 295.4 1310.86 299.5C1307.96 303.6 1303.56 306.7 1297.66 308.8L1319.66 350.2H1300.26L1279.36 310.8H1277.76V350.2H1260.06V257.2ZM1277.76 293.6H1283.26C1288.86 293.6 1292.76 292.9 1294.86 291.4C1296.96 289.9 1298.06 287.5 1298.06 284C1298.06 282 1297.56 280.2 1296.46 278.7C1295.36 277.2 1293.96 276.1 1292.26 275.5C1290.46 274.8 1287.26 274.5 1282.56 274.5H1277.66V293.6H1277.76Z" fill="black"/>
<path d="M1358.56 257.2H1376.16V350.2H1358.56V257.2Z" fill="black"/>
<path d="M1450.36 257.2H1468.36L1504.16 350.2H1485.76L1478.46 331H1440.46L1432.86 350.2H1414.46L1450.36 257.2ZM1459.46 281.9L1446.96 313.8H1471.86L1459.46 281.9Z" fill="black"/>
<path d="M564.464 0H555.664V384.2H564.464V0Z" fill="black"/>
<path fill-rule="evenodd" clip-rule="evenodd" d="M157 357C243.709 357 314 286.709 314 200C314 113.291 243.709 43 157 43C70.2913 43 0 113.291 0 200C0 286.709 70.2913 357 157 357ZM156.5 290C206.482 290 247 249.482 247 199.5C247 149.518 206.482 109 156.5 109C106.518 109 66 149.518 66 199.5C66 249.482 106.518 290 156.5 290Z" fill="#FE0101"/>
</svg>
