<svg width="511" height="387" viewBox="0 0 511 387" fill="none" xmlns="http://www.w3.org/2000/svg">
<g clip-path="url(#clip0)">
<path d="M140 385.3C129.9 385.3 120.7 385.3 110.4 385.3C110.4 346.3 110.4 307.5 110.4 268.8C109.6 268.7 108.9 268.6 108.1 268.5C100 307.3 91.9 346 83.7 385.6C76.5 385.6 69.5 386 62.6 385.3C60.9 385.2 58.6 382 58.1 379.9C49.9 345.2 41.9 310.5 33.8 275.8C33.2 273.2 32.5 270.7 31.8 268.2C31.2 268.3 30.6 268.3 30 268.4C30 307.2 30 345.9 30 385.1C19.5 385.1 10.1 385.1 0 385.1C0 318.6 0 252 0 184.4C13.6 184.4 27.1 184.2 40.5 184.6C41.8 184.6 43.7 188 44.1 190C52.3 231.4 60.3 272.8 68.4 314.2C69 317.3 69.9 320.3 72.4 323.4C74.6 311.8 76.9 300.2 79.1 288.6C85.2 255.8 91.2 222.9 97.5 190.1C97.9 188 100.4 184.7 102 184.6C114.5 184.1 127.1 184.3 140.1 184.3C140 251.7 140 318.2 140 385.3Z" fill="#002338"/>
<path d="M356.7 113.3C363.7 76.4 370.8 39.5 377.8 2.5C388.9 2.5 399.4 2.5 410.4 2.5C410.4 55.9 410.4 109.1 410.4 163C403.1 163 395.7 163 387.1 163C387.1 133.3 387.1 103.5 387.1 73.6C386.3 73.5 385.4 73.4 384.6 73.3C378.3 103.2 371.9 133.1 365.6 162.8C364.7 163.1 364.3 163.4 363.8 163.4C345.7 164.1 345.8 164.1 341.9 146.6C336.3 122.1 330.5 97.7 324.8 73.2C324.4 71.6 323.8 70 322.3 68.6C322.3 99.9 322.3 131.1 322.3 163C314.3 163 306.9 163 298.8 163C298.8 109.9 298.8 56.4 298.8 2.6C310 2.6 321.2 2.6 333.1 2.6C340.3 39.5 347.6 76.5 354.9 113.5C355.4 113.4 356.1 113.4 356.7 113.3Z" fill="#002338"/>
<path d="M162.8 383.6C184.9 318.2 207.1 252.7 229.2 187.3C229.7 187.2 230.3 187.1 230.8 187.1C253 252.6 275.2 318.1 298 385.7C280.7 374.5 265.3 364.4 249.8 354.4C243.3 350.2 236.6 343 230 343C223.4 343 216.7 350.2 210.2 354.4C194.8 364.3 179.5 374.4 164.1 384.4C163.8 384.1 163.3 383.8 162.8 383.6Z" fill="#E80000"/>
<path d="M320.7 385.2C320.7 318.4 320.7 252.1 320.7 185.1C330.3 185.1 339.9 185.1 350.4 185.1C350.4 241.6 350.4 298 350.4 355.2C368 355.2 384.7 355.2 402.1 355.2C402.1 365.5 402.1 375.1 402.1 385.2C375.2 385.2 348.4 385.2 320.7 385.2Z" fill="#002338"/>
<path d="M429.4 385.2C429.4 318.4 429.4 252.1 429.4 185.1C439 185.1 448.6 185.1 459.1 185.1C459.1 241.6 459.1 298 459.1 355.2C476.7 355.2 493.4 355.2 510.8 355.2C510.8 365.5 510.8 375.1 510.8 385.2C483.8 385.2 456.8 385.2 429.4 385.2Z" fill="#002338"/>
<path d="M187.9 120.1C197 119.4 204.2 118.8 211.3 118.3C212.6 122.9 213.3 126.8 214.7 130.5C218.3 140.1 225.2 144.5 233 142.4C240.5 140.4 246.6 131.2 244.2 122.7C242.3 115.8 238.5 108.7 233.8 103.3C224.2 92.4002 212.8 83.0002 203.2 72.1002C190.7 58.0002 188.3 41.1002 194.2 23.4002C200 5.80017 218 -2.99983 238.3 0.900175C255.6 4.30017 268.3 20.1002 267.1 37.5002C259.9 38.8002 252.6 40.1002 245.5 41.4002C243.9 36.9002 242.8 33.1002 241.1 29.5002C238.8 24.4002 234.6 22.0002 229 22.2002C223.3 22.4002 219.8 25.6002 217.9 30.9002C214.7 39.6002 215.8 48.2002 221.1 55.3002C226.4 62.5002 232.9 69.0002 239.6 74.9002C252.8 86.6002 264.3 99.2002 268.3 117.1C272.8 136.8 262 158.5 244.1 163.4C221.5 169.6 202.3 162.7 193.6 141.4C191 135 190 128 187.9 120.1Z" fill="#002338"/>
<path d="M464.7 26.1001C464.7 40.5001 464.5 53.6001 464.9 66.6001C464.9 68.1001 468.1 70.7001 469.9 70.8001C478.7 71.2001 487.5 71.0001 496.9 71.0001C496.9 79.1001 496.9 86.7001 496.9 95.2001C486.3 95.2001 475.9 95.2001 465.2 95.2001C465.2 110.3 465.2 124.5 465.2 139.4C480.2 139.4 494.7 139.4 509.5 139.4C509.5 147.6 509.5 155 509.5 163C486.8 163 464.3 163 441.1 163C441.1 109.8 441.1 56.4001 441.1 2.6001C463.7 2.6001 486.2 2.6001 509.3 2.6001C509.3 10.2001 509.3 17.7001 509.3 26.1001C494.7 26.1001 480.3 26.1001 464.7 26.1001Z" fill="#002338"/>
<path d="M81.3002 80.5C85.7002 80.5 88.8002 80.5 92.5002 80.5C92.5002 107 92.5002 133.2 92.5002 160.1C89.2002 160.1 85.9002 160.1 81.7002 160.1C81.7002 149 81.7002 138.1 81.7002 126.6C76.5002 126.6 72.2002 126.6 66.8002 126.6C66.8002 137.5 66.8002 148.6 66.8002 160.2C62.4002 160.2 59.1002 160.2 55.2002 160.2C55.2002 133.9 55.2002 107.6 55.2002 80.7C58.6002 80.7 61.9002 80.7 66.3002 80.7C66.3002 91.6 66.3002 102.5 66.3002 113.8C71.7002 113.8 76.1002 113.8 81.2002 113.8C81.3002 102.9 81.3002 92.2 81.3002 80.5Z" fill="#002338"/>
<path d="M137.6 148.8C137.6 153.2 137.6 156.4 137.6 160.2C126.4 160.2 115.3 160.2 103.7 160.2C103.7 133.7 103.7 107.4 103.7 80.7002C114.9 80.7002 125.8 80.7002 137.3 80.7002C137.3 84.0002 137.3 87.4002 137.3 91.5002C130.2 91.5002 123.3 91.5002 115.8 91.5002C115.8 99.3002 115.8 106.4 115.8 114.2C120.9 114.2 125.8 114.2 131.3 114.2C131.3 118.2 131.3 121.6 131.3 125.9C126.3 125.9 121.2 125.9 115.7 125.9C115.7 133.9 115.7 141.1 115.7 148.9C122.8 148.8 129.8 148.8 137.6 148.8Z" fill="#002338"/>
<path d="M30.9001 160.5C26.5001 160.5 23.2001 160.5 19.0001 160.5C19.0001 137.8 19.0001 115.1 19.0001 92.1003C14.4001 91.8003 10.7001 91.5003 6.6001 91.2003C6.6001 87.8003 6.6001 84.6003 6.6001 80.8003C18.3001 80.8003 30.2001 80.8003 42.7001 80.8003C42.7001 84.1003 42.7001 87.4003 42.7001 91.2003C38.9001 91.5003 35.3001 91.7003 30.9001 92.0003C30.9001 114.8 30.9001 137.2 30.9001 160.5Z" fill="#002338"/>
</g>
<defs>
<clipPath id="clip0">
<rect width="510.8" height="386.9" fill="white"/>
</clipPath>
</defs>
</svg>
